<?xml version="1.0" encoding="UTF-8"?>
<svg xmlns="http://www.w3.org/2000/svg" xmlns:xlink="http://www.w3.org/1999/xlink" width="288px" height="252px" viewBox="0 0 288 252" version="1.1" id="Fig:dens">
  <metadata xmlns:gridsvg="http://www.stat.auckland.ac.nz/~paul/R/gridSVG/">
    <gridsvg:generator name="gridSVG" version="1.7-0" time="2019-07-11 20:23:12"/>
    <gridsvg:argument name="name" value="Quality Control of Data/dens.svg"/>
    <gridsvg:argument name="exportCoords" value="none"/>
    <gridsvg:argument name="exportMappings" value="none"/>
    <gridsvg:argument name="exportJS" value="none"/>
    <gridsvg:argument name="res" value="72"/>
    <gridsvg:argument name="prefix" value="Fig:dens"/>
    <gridsvg:argument name="addClasses" value="FALSE"/>
    <gridsvg:argument name="indent" value="TRUE"/>
    <gridsvg:argument name="htmlWrapper" value="FALSE"/>
    <gridsvg:argument name="usePaths" value="none"/>
    <gridsvg:argument name="uniqueNames" value="TRUE"/>
    <gridsvg:separator name="id.sep" value="."/>
    <gridsvg:separator name="gPath.sep" value="::"/>
    <gridsvg:separator name="vpPath.sep" value="::"/>
  </metadata>
  <g transform="translate(0, 252) scale(1, -1)">
    <g id="Fig:densgridSVG" fill="none" stroke="rgb(0,0,0)" stroke-dasharray="none" stroke-width="0.75" font-size="12" font-family="Helvetica, Arial, FreeSans, Liberation Sans, Nimbus Sans L, sans-serif" opacity="1" stroke-linecap="round" stroke-linejoin="round" stroke-miterlimit="10" stroke-opacity="1" fill-opacity="0" font-weight="normal" font-style="normal">
      <g id="Fig:densplot_01.background.1">
        <rect id="Fig:densplot_01.background.1.1" x="0" y="0" width="288" height="252" transform="" fill="none" stroke="none" stroke-opacity="0" fill-opacity="0"/>
      </g>
      <g id="Fig:densplot_01.toplevel.vp.1" font-size="12">
        <g id="Fig:densplot_01.ylab.vp.1">
          <g id="Fig:densplot_01.ylab.1">
            <g id="Fig:densplot_01.ylab.1.1" transform="translate(10.31, 138.09)" stroke-width="0.1">
              <g id="Fig:densplot_01.ylab.1.1.scale" transform="scale(1, -1)">
                <text x="0" y="0" id="Fig:densplot_01.ylab.1.1.text" transform="rotate(-90)" text-anchor="middle" opacity="1" stroke="rgb(0,0,0)" fill="rgb(0,0,0)" stroke-opacity="1" fill-opacity="1" font-size="12" font-weight="normal" font-style="normal">
                  <tspan id="Fig:densplot_01.ylab.1.1.tspan.1" dy="4.31" x="0">Density</tspan>
                </text>
              </g>
            </g>
          </g>
        </g>
        <g id="Fig:densplot_01.figure.vp.1"/>
        <defs>
          <clipPath id="Fig:densplot_01.panel.1.1.vp.1.clipPath">
            <rect x="44.8" y="42.19" width="231.2" height="191.81" fill="none" stroke="none"/>
          </clipPath>
        </defs>
        <g id="Fig:densplot_01.panel.1.1.vp.1" clip-path="url(#Fig:densplot_01.panel.1.1.vp.1.clipPath)"/>
        <g id="Fig:densplot_01.strip.1.1.off.vp.1"/>
        <g id="Fig:densplot_01.strip.left.1.1.off.vp.1">
          <g id="Fig:densplot_01.ticks.left.panel.1.1.1">
            <polyline id="Fig:densplot_01.ticks.left.panel.1.1.1.1" points="44.8,53.97 39.13,53.97" stroke="rgb(0,0,0)" opacity="1" stroke-dasharray="none" stroke-width="0.75" stroke-opacity="1" fill="none"/>
            <polyline id="Fig:densplot_01.ticks.left.panel.1.1.1.2" points="44.8,96.7 39.13,96.7" stroke="rgb(0,0,0)" opacity="1" stroke-dasharray="none" stroke-width="0.75" stroke-opacity="1" fill="none"/>
            <polyline id="Fig:densplot_01.ticks.left.panel.1.1.1.3" points="44.8,139.43 39.13,139.43" stroke="rgb(0,0,0)" opacity="1" stroke-dasharray="none" stroke-width="0.75" stroke-opacity="1" fill="none"/>
            <polyline id="Fig:densplot_01.ticks.left.panel.1.1.1.4" points="44.8,182.17 39.13,182.17" stroke="rgb(0,0,0)" opacity="1" stroke-dasharray="none" stroke-width="0.75" stroke-opacity="1" fill="none"/>
            <polyline id="Fig:densplot_01.ticks.left.panel.1.1.1.5" points="44.8,224.9 39.13,224.9" stroke="rgb(0,0,0)" opacity="1" stroke-dasharray="none" stroke-width="0.75" stroke-opacity="1" fill="none"/>
          </g>
          <g id="Fig:densplot_01.ticklabels.left.panel.1.1.1">
            <g id="Fig:densplot_01.ticklabels.left.panel.1.1.1.1" transform="translate(33.47, 53.97)" stroke-width="0.1">
              <g id="Fig:densplot_01.ticklabels.left.panel.1.1.1.1.scale" transform="scale(1, -1)">
                <text x="0" y="0" id="Fig:densplot_01.ticklabels.left.panel.1.1.1.1.text" transform="rotate(-90)" text-anchor="middle" stroke="rgb(0,0,0)" opacity="1" fill="rgb(0,0,0)" stroke-opacity="1" fill-opacity="1" font-size="9.6" font-weight="normal" font-style="normal">
                  <tspan id="Fig:densplot_01.ticklabels.left.panel.1.1.1.1.tspan.1" dy="0" x="0">0.000</tspan>
                </text>
              </g>
            </g>
            <g id="Fig:densplot_01.ticklabels.left.panel.1.1.1.2" transform="translate(33.47, 96.7)" stroke-width="0.1">
              <g id="Fig:densplot_01.ticklabels.left.panel.1.1.1.2.scale" transform="scale(1, -1)">
                <text x="0" y="0" id="Fig:densplot_01.ticklabels.left.panel.1.1.1.2.text" transform="rotate(-90)" text-anchor="middle" stroke="rgb(0,0,0)" opacity="1" fill="rgb(0,0,0)" stroke-opacity="1" fill-opacity="1" font-size="9.6" font-weight="normal" font-style="normal">
                  <tspan id="Fig:densplot_01.ticklabels.left.panel.1.1.1.2.tspan.1" dy="0" x="0">0.002</tspan>
                </text>
              </g>
            </g>
            <g id="Fig:densplot_01.ticklabels.left.panel.1.1.1.3" transform="translate(33.47, 139.43)" stroke-width="0.1">
              <g id="Fig:densplot_01.ticklabels.left.panel.1.1.1.3.scale" transform="scale(1, -1)">
                <text x="0" y="0" id="Fig:densplot_01.ticklabels.left.panel.1.1.1.3.text" transform="rotate(-90)" text-anchor="middle" stroke="rgb(0,0,0)" opacity="1" fill="rgb(0,0,0)" stroke-opacity="1" fill-opacity="1" font-size="9.6" font-weight="normal" font-style="normal">
                  <tspan id="Fig:densplot_01.ticklabels.left.panel.1.1.1.3.tspan.1" dy="0" x="0">0.004</tspan>
                </text>
              </g>
            </g>
            <g id="Fig:densplot_01.ticklabels.left.panel.1.1.1.4" transform="translate(33.47, 182.17)" stroke-width="0.1">
              <g id="Fig:densplot_01.ticklabels.left.panel.1.1.1.4.scale" transform="scale(1, -1)">
                <text x="0" y="0" id="Fig:densplot_01.ticklabels.left.panel.1.1.1.4.text" transform="rotate(-90)" text-anchor="middle" stroke="rgb(0,0,0)" opacity="1" fill="rgb(0,0,0)" stroke-opacity="1" fill-opacity="1" font-size="9.6" font-weight="normal" font-style="normal">
                  <tspan id="Fig:densplot_01.ticklabels.left.panel.1.1.1.4.tspan.1" dy="0" x="0">0.006</tspan>
                </text>
              </g>
            </g>
            <g id="Fig:densplot_01.ticklabels.left.panel.1.1.1.5" transform="translate(33.47, 224.9)" stroke-width="0.1">
              <g id="Fig:densplot_01.ticklabels.left.panel.1.1.1.5.scale" transform="scale(1, -1)">
                <text x="0" y="0" id="Fig:densplot_01.ticklabels.left.panel.1.1.1.5.text" transform="rotate(-90)" text-anchor="middle" stroke="rgb(0,0,0)" opacity="1" fill="rgb(0,0,0)" stroke-opacity="1" fill-opacity="1" font-size="9.6" font-weight="normal" font-style="normal">
                  <tspan id="Fig:densplot_01.ticklabels.left.panel.1.1.1.5.tspan.1" dy="0" x="0">0.008</tspan>
                </text>
              </g>
            </g>
          </g>
        </g>
        <g id="Fig:densplot_01.panel.1.1.off.vp.1">
          <g id="Fig:densplot_01.ticks.bottom.panel.1.1.1">
            <polyline id="Fig:densplot_01.ticks.bottom.panel.1.1.1.1" points="61.45,42.19 61.45,36.52" stroke="rgb(0,0,0)" opacity="1" stroke-dasharray="none" stroke-width="0.75" stroke-opacity="1" fill="none"/>
            <polyline id="Fig:densplot_01.ticks.bottom.panel.1.1.1.2" points="102.28,42.19 102.28,36.52" stroke="rgb(0,0,0)" opacity="1" stroke-dasharray="none" stroke-width="0.75" stroke-opacity="1" fill="none"/>
            <polyline id="Fig:densplot_01.ticks.bottom.panel.1.1.1.3" points="143.11,42.19 143.11,36.52" stroke="rgb(0,0,0)" opacity="1" stroke-dasharray="none" stroke-width="0.75" stroke-opacity="1" fill="none"/>
            <polyline id="Fig:densplot_01.ticks.bottom.panel.1.1.1.4" points="183.94,42.19 183.94,36.52" stroke="rgb(0,0,0)" opacity="1" stroke-dasharray="none" stroke-width="0.75" stroke-opacity="1" fill="none"/>
            <polyline id="Fig:densplot_01.ticks.bottom.panel.1.1.1.5" points="224.77,42.19 224.77,36.52" stroke="rgb(0,0,0)" opacity="1" stroke-dasharray="none" stroke-width="0.75" stroke-opacity="1" fill="none"/>
            <polyline id="Fig:densplot_01.ticks.bottom.panel.1.1.1.6" points="265.6,42.19 265.6,36.52" stroke="rgb(0,0,0)" opacity="1" stroke-dasharray="none" stroke-width="0.75" stroke-opacity="1" fill="none"/>
          </g>
          <g id="Fig:densplot_01.ticklabels.bottom.panel.1.1.1">
            <g id="Fig:densplot_01.ticklabels.bottom.panel.1.1.1.1" transform="translate(61.45, 30.85)" stroke-width="0.1">
              <g id="Fig:densplot_01.ticklabels.bottom.panel.1.1.1.1.scale" transform="scale(1, -1)">
                <text x="0" y="0" id="Fig:densplot_01.ticklabels.bottom.panel.1.1.1.1.text" text-anchor="middle" stroke="rgb(0,0,0)" opacity="1" fill="rgb(0,0,0)" stroke-opacity="1" fill-opacity="1" font-size="9.6" font-weight="normal" font-style="normal">
                  <tspan id="Fig:densplot_01.ticklabels.bottom.panel.1.1.1.1.tspan.1" dy="7.18" x="0">0</tspan>
                </text>
              </g>
            </g>
            <g id="Fig:densplot_01.ticklabels.bottom.panel.1.1.1.2" transform="translate(102.28, 30.85)" stroke-width="0.1">
              <g id="Fig:densplot_01.ticklabels.bottom.panel.1.1.1.2.scale" transform="scale(1, -1)">
                <text x="0" y="0" id="Fig:densplot_01.ticklabels.bottom.panel.1.1.1.2.text" text-anchor="middle" stroke="rgb(0,0,0)" opacity="1" fill="rgb(0,0,0)" stroke-opacity="1" fill-opacity="1" font-size="9.6" font-weight="normal" font-style="normal">
                  <tspan id="Fig:densplot_01.ticklabels.bottom.panel.1.1.1.2.tspan.1" dy="7.18" x="0">1000</tspan>
                </text>
              </g>
            </g>
            <g id="Fig:densplot_01.ticklabels.bottom.panel.1.1.1.3" transform="translate(143.11, 30.85)" stroke-width="0.1">
              <g id="Fig:densplot_01.ticklabels.bottom.panel.1.1.1.3.scale" transform="scale(1, -1)">
                <text x="0" y="0" id="Fig:densplot_01.ticklabels.bottom.panel.1.1.1.3.text" text-anchor="middle" stroke="rgb(0,0,0)" opacity="1" fill="rgb(0,0,0)" stroke-opacity="1" fill-opacity="1" font-size="9.6" font-weight="normal" font-style="normal">
                  <tspan id="Fig:densplot_01.ticklabels.bottom.panel.1.1.1.3.tspan.1" dy="7.18" x="0">2000</tspan>
                </text>
              </g>
            </g>
            <g id="Fig:densplot_01.ticklabels.bottom.panel.1.1.1.4" transform="translate(183.94, 30.85)" stroke-width="0.1">
              <g id="Fig:densplot_01.ticklabels.bottom.panel.1.1.1.4.scale" transform="scale(1, -1)">
                <text x="0" y="0" id="Fig:densplot_01.ticklabels.bottom.panel.1.1.1.4.text" text-anchor="middle" stroke="rgb(0,0,0)" opacity="1" fill="rgb(0,0,0)" stroke-opacity="1" fill-opacity="1" font-size="9.6" font-weight="normal" font-style="normal">
                  <tspan id="Fig:densplot_01.ticklabels.bottom.panel.1.1.1.4.tspan.1" dy="7.18" x="0">3000</tspan>
                </text>
              </g>
            </g>
            <g id="Fig:densplot_01.ticklabels.bottom.panel.1.1.1.5" transform="translate(224.77, 30.85)" stroke-width="0.1">
              <g id="Fig:densplot_01.ticklabels.bottom.panel.1.1.1.5.scale" transform="scale(1, -1)">
                <text x="0" y="0" id="Fig:densplot_01.ticklabels.bottom.panel.1.1.1.5.text" text-anchor="middle" stroke="rgb(0,0,0)" opacity="1" fill="rgb(0,0,0)" stroke-opacity="1" fill-opacity="1" font-size="9.6" font-weight="normal" font-style="normal">
                  <tspan id="Fig:densplot_01.ticklabels.bottom.panel.1.1.1.5.tspan.1" dy="7.18" x="0">4000</tspan>
                </text>
              </g>
            </g>
            <g id="Fig:densplot_01.ticklabels.bottom.panel.1.1.1.6" transform="translate(265.6, 30.85)" stroke-width="0.1">
              <g id="Fig:densplot_01.ticklabels.bottom.panel.1.1.1.6.scale" transform="scale(1, -1)">
                <text x="0" y="0" id="Fig:densplot_01.ticklabels.bottom.panel.1.1.1.6.text" text-anchor="middle" stroke="rgb(0,0,0)" opacity="1" fill="rgb(0,0,0)" stroke-opacity="1" fill-opacity="1" font-size="9.6" font-weight="normal" font-style="normal">
                  <tspan id="Fig:densplot_01.ticklabels.bottom.panel.1.1.1.6.tspan.1" dy="7.18" x="0">5000</tspan>
                </text>
              </g>
            </g>
          </g>
        </g>
        <defs>
          <clipPath id="Fig:densplot_01.panel.1.1.vp.2.clipPath">
            <rect x="44.8" y="42.19" width="231.2" height="191.81" fill="none" stroke="none"/>
          </clipPath>
        </defs>
        <g id="Fig:densplot_01.panel.1.1.vp.2" clip-path="url(#Fig:densplot_01.panel.1.1.vp.2.clipPath)">
          <g id="Fig:densplot_01.xyplot.lines.group.1.panel.1.1.1">
            <polyline id="Fig:densplot_01.xyplot.lines.group.1.panel.1.1.1.1" points="60.5,54.02 60.89,54.29 61.28,55.55 61.67,59.8 62.06,70.57 62.45,91.02 62.84,120.09 63.23,150.6 63.63,172.82 64.02,181.07 64.41,176.59 64.8,164.86 65.19,151.15 65.58,138.45 65.97,127.72 66.36,118.92 66.75,111.67 67.15,105.57 67.54,100.32 67.93,95.79 68.32,91.95 68.71,88.73 69.1,86.02 69.49,83.69 69.88,81.62 70.28,79.72 70.67,77.96 71.06,76.34 71.45,74.92 71.84,73.7 72.23,72.68 72.62,71.77 73.01,70.89 73.4,70.03 73.8,69.2 74.19,68.42 74.58,67.71 74.97,67.07 75.36,66.49 75.75,65.94 76.14,65.42 76.53,64.93 76.93,64.48 77.32,64.08 77.71,63.74 78.1,63.43 78.49,63.14 78.88,62.86 79.27,62.58 79.66,62.28 80.05,61.98 80.45,61.68 80.84,61.41 81.23,61.15 81.62,60.9 82.01,60.66 82.4,60.45 82.79,60.28 83.18,60.15 83.58,60.05 83.97,59.94 84.36,59.8 84.75,59.65 85.14,59.49 85.53,59.36 85.92,59.23 86.31,59.1 86.7,58.95 87.1,58.79 87.49,58.65 87.88,58.55 88.27,58.47 88.66,58.42 89.05,58.36 89.44,58.28 89.83,58.17 90.23,58.05 90.62,57.95 91.01,57.86 91.4,57.79 91.79,57.75 92.18,57.72 92.57,57.66 92.96,57.58 93.36,57.49 93.75,57.41 94.14,57.34 94.53,57.28 94.92,57.22 95.31,57.16 95.7,57.11 96.09,57.06 96.48,57.02 96.88,56.98 97.27,56.92 97.66,56.86 98.05,56.8 98.44,56.76 98.83,56.73 99.22,56.7 99.61,56.65 100.01,56.58 100.4,56.52 100.79,56.47 101.18,56.44 101.57,56.42 101.96,56.39 102.35,56.35 102.74,56.32 103.13,56.29 103.53,56.25 103.92,56.22 104.31,56.17 104.7,56.13 105.09,56.11 105.48,56.11 105.87,56.12 106.26,56.12 106.66,56.09 107.05,56.05 107.44,56.01 107.83,55.99 108.22,55.97 108.61,55.94 109,55.9 109.39,55.85 109.78,55.79 110.18,55.74 110.57,55.72 110.96,55.71 111.35,55.7 111.74,55.69 112.13,55.67 112.52,55.65 112.91,55.64 113.31,55.63 113.7,55.61 114.09,55.58 114.48,55.54 114.87,55.5 115.26,55.48 115.65,55.46 116.04,55.43 116.43,55.41 116.83,55.4 117.22,55.38 117.61,55.36 118,55.33 118.39,55.29 118.78,55.25 119.17,55.23 119.56,55.22 119.96,55.23 120.35,55.25 120.74,55.26 121.13,55.26 121.52,55.25 121.91,55.24 122.3,55.24 122.69,55.24 123.08,55.24 123.48,55.25 123.87,55.24 124.26,55.24 124.65,55.23 125.04,55.22 125.43,55.2 125.82,55.18 126.21,55.17 126.61,55.17 127,55.17 127.39,55.17 127.78,55.15 128.17,55.12 128.56,55.09 128.95,55.06 129.34,55.03 129.73,55.01 130.13,55.01 130.52,55.01 130.91,55.01 131.3,55.01 131.69,55 132.08,54.98 132.47,54.95 132.86,54.92 133.26,54.9 133.65,54.88 134.04,54.86 134.43,54.85 134.82,54.85 135.21,54.85 135.6,54.85 135.99,54.86 136.39,54.86 136.78,54.87 137.17,54.86 137.56,54.85 137.95,54.83 138.34,54.82 138.73,54.81 139.12,54.79 139.51,54.76 139.91,54.74 140.3,54.73 140.69,54.73 141.08,54.73 141.47,54.74 141.86,54.73 142.25,54.73 142.64,54.72 143.04,54.72 143.43,54.72 143.82,54.72 144.21,54.71 144.6,54.7 144.99,54.69 145.38,54.68 145.77,54.67 146.16,54.66 146.56,54.66 146.95,54.66 147.34,54.66 147.73,54.66 148.12,54.64 148.51,54.62 148.9,54.6 149.29,54.59 149.69,54.58 150.08,54.58 150.47,54.58 150.86,54.59 151.25,54.6 151.64,54.6 152.03,54.61 152.42,54.61 152.81,54.61 153.21,54.61 153.6,54.61 153.99,54.61 154.38,54.61 154.77,54.6 155.16,54.59 155.55,54.58 155.94,54.57 156.34,54.56 156.73,54.55 157.12,54.53 157.51,54.51 157.9,54.49 158.29,54.48 158.68,54.47 159.07,54.48 159.46,54.48 159.86,54.49 160.25,54.5 160.64,54.51 161.03,54.52 161.42,54.51 161.81,54.5 162.2,54.49 162.59,54.49 162.99,54.48 163.38,54.48 163.77,54.47 164.16,54.46 164.55,54.44 164.94,54.43 165.33,54.42 165.72,54.42 166.11,54.43 166.51,54.44 166.9,54.45 167.29,54.45 167.68,54.44 168.07,54.44 168.46,54.44 168.85,54.43 169.24,54.42 169.64,54.42 170.03,54.41 170.42,54.41 170.81,54.41 171.2,54.41 171.59,54.41 171.98,54.4 172.37,54.4 172.76,54.4 173.16,54.39 173.55,54.39 173.94,54.39 174.33,54.4 174.72,54.4 175.11,54.39 175.5,54.37 175.89,54.37 176.29,54.37 176.68,54.38 177.07,54.39 177.46,54.38 177.85,54.38 178.24,54.37 178.63,54.36 179.02,54.35 179.42,54.35 179.81,54.35 180.2,54.35 180.59,54.35 180.98,54.36 181.37,54.36 181.76,54.36 182.15,54.36 182.54,54.35 182.94,54.34 183.33,54.33 183.72,54.33 184.11,54.32 184.5,54.32 184.89,54.32 185.28,54.33 185.67,54.33 186.07,54.32 186.46,54.32 186.85,54.31 187.24,54.31 187.63,54.31 188.02,54.31 188.41,54.3 188.8,54.29 189.19,54.28 189.59,54.28 189.98,54.28 190.37,54.29 190.76,54.3 191.15,54.3 191.54,54.3 191.93,54.3 192.32,54.31 192.72,54.31 193.11,54.3 193.5,54.3 193.89,54.29 194.28,54.27 194.67,54.26 195.06,54.25 195.45,54.24 195.84,54.24 196.24,54.25 196.63,54.25 197.02,54.26 197.41,54.26 197.8,54.26 198.19,54.26 198.58,54.26 198.97,54.25 199.37,54.25 199.76,54.25 200.15,54.25 200.54,54.25 200.93,54.26 201.32,54.25 201.71,54.25 202.1,54.24 202.49,54.23 202.89,54.22 203.28,54.21 203.67,54.2 204.06,54.21 204.45,54.22 204.84,54.23 205.23,54.25 205.62,54.26 206.02,54.25 206.41,54.24 206.8,54.22 207.19,54.21 207.58,54.21 207.97,54.22 208.36,54.23 208.75,54.24 209.14,54.25 209.54,54.24 209.93,54.23 210.32,54.22 210.71,54.21 211.1,54.21 211.49,54.22 211.88,54.22 212.27,54.22 212.67,54.22 213.06,54.21 213.45,54.2 213.84,54.2 214.23,54.2 214.62,54.2 215.01,54.2 215.4,54.2 215.8,54.2 216.19,54.2 216.58,54.21 216.97,54.2 217.36,54.2 217.75,54.2 218.14,54.19 218.53,54.19 218.92,54.18 219.32,54.18 219.71,54.19 220.1,54.2 220.49,54.2 220.88,54.2 221.27,54.2 221.66,54.19 222.05,54.19 222.45,54.19 222.84,54.18 223.23,54.18 223.62,54.17 224.01,54.16 224.4,54.15 224.79,54.15 225.18,54.15 225.57,54.15 225.97,54.15 226.36,54.15 226.75,54.16 227.14,54.16 227.53,54.16 227.92,54.16 228.31,54.16 228.7,54.15 229.1,54.15 229.49,54.16 229.88,54.16 230.27,54.16 230.66,54.15 231.05,54.14 231.44,54.14 231.83,54.14 232.22,54.15 232.62,54.15 233.01,54.16 233.4,54.16 233.79,54.16 234.18,54.16 234.57,54.16 234.96,54.15 235.35,54.15 235.75,54.14 236.14,54.13 236.53,54.12 236.92,54.11 237.31,54.1 237.7,54.1 238.09,54.11 238.48,54.12 238.87,54.13 239.27,54.13 239.66,54.13 240.05,54.13 240.44,54.13 240.83,54.13 241.22,54.14 241.61,54.14 242,54.15 242.4,54.15 242.79,54.14 243.18,54.14 243.57,54.13 243.96,54.13 244.35,54.13 244.74,54.13 245.13,54.13 245.52,54.12 245.92,54.12 246.31,54.11 246.7,54.11 247.09,54.12 247.48,54.12 247.87,54.12 248.26,54.12 248.65,54.12 249.05,54.11 249.44,54.11 249.83,54.11 250.22,54.12 250.61,54.13 251,54.14 251.39,54.15 251.78,54.16 252.17,54.16 252.57,54.16 252.96,54.15 253.35,54.15 253.74,54.15 254.13,54.16 254.52,54.15 254.91,54.15 255.3,54.15 255.7,54.14 256.09,54.14 256.48,54.13 256.87,54.12 257.26,54.11 257.65,54.1 258.04,54.08 258.43,54.05 258.83,54.02 259.22,53.99 259.61,53.97 260,53.97 260.39,53.97" stroke-dasharray="none" stroke="rgb(31,120,180)" stroke-width="0.75" opacity="1" stroke-opacity="1" fill="none"/>
          </g>
          <g id="Fig:densplot_01.xyplot.lines.group.2.panel.1.1.1">
            <polyline id="Fig:densplot_01.xyplot.lines.group.2.panel.1.1.1.1" points="60.36,54 60.75,54.18 61.14,54.93 61.53,57.45 61.92,64.18 62.31,78.34 62.71,101.59 63.1,130.19 63.49,155.97 63.88,171.48 64.27,174.49 64.66,167.97 65.06,156.73 65.45,144.54 65.84,133.33 66.23,123.69 66.62,115.59 67.02,108.8 67.41,103.1 67.8,98.3 68.19,94.23 68.58,90.76 68.97,87.73 69.37,85.05 69.76,82.68 70.15,80.59 70.54,78.79 70.93,77.24 71.32,75.87 71.72,74.62 72.11,73.47 72.5,72.4 72.89,71.41 73.28,70.51 73.67,69.69 74.07,68.94 74.46,68.24 74.85,67.59 75.24,66.99 75.63,66.43 76.03,65.92 76.42,65.43 76.81,64.97 77.2,64.56 77.59,64.2 77.98,63.87 78.38,63.54 78.77,63.2 79.16,62.86 79.55,62.53 79.94,62.24 80.33,61.98 80.73,61.75 81.12,61.53 81.51,61.29 81.9,61.06 82.29,60.82 82.68,60.58 83.08,60.34 83.47,60.14 83.86,59.98 84.25,59.85 84.64,59.73 85.03,59.62 85.43,59.51 85.82,59.41 86.21,59.31 86.6,59.19 86.99,59.06 87.39,58.95 87.78,58.85 88.17,58.74 88.56,58.63 88.95,58.53 89.34,58.45 89.74,58.39 90.13,58.31 90.52,58.2 90.91,58.08 91.3,57.95 91.69,57.85 92.09,57.75 92.48,57.67 92.87,57.6 93.26,57.53 93.65,57.48 94.04,57.45 94.44,57.43 94.83,57.4 95.22,57.35 95.61,57.3 96,57.25 96.39,57.21 96.79,57.17 97.18,57.12 97.57,57.05 97.96,56.97 98.35,56.91 98.75,56.85 99.14,56.78 99.53,56.7 99.92,56.62 100.31,56.57 100.7,56.54 101.1,56.53 101.49,56.52 101.88,56.51 102.27,56.49 102.66,56.46 103.05,56.42 103.45,56.38 103.84,56.34 104.23,56.32 104.62,56.31 105.01,56.29 105.4,56.26 105.8,56.23 106.19,56.2 106.58,56.16 106.97,56.12 107.36,56.08 107.76,56.06 108.15,56.03 108.54,56 108.93,55.96 109.32,55.94 109.71,55.94 110.11,55.93 110.5,55.91 110.89,55.87 111.28,55.83 111.67,55.81 112.06,55.79 112.46,55.78 112.85,55.76 113.24,55.73 113.63,55.7 114.02,55.66 114.41,55.63 114.81,55.62 115.2,55.63 115.59,55.64 115.98,55.65 116.37,55.63 116.76,55.6 117.16,55.56 117.55,55.52 117.94,55.49 118.33,55.47 118.72,55.46 119.12,55.47 119.51,55.47 119.9,55.46 120.29,55.43 120.68,55.39 121.07,55.36 121.47,55.34 121.86,55.34 122.25,55.34 122.64,55.34 123.03,55.33 123.42,55.3 123.82,55.28 124.21,55.24 124.6,55.21 124.99,55.18 125.38,55.15 125.77,55.12 126.17,55.1 126.56,55.09 126.95,55.09 127.34,55.09 127.73,55.09 128.13,55.08 128.52,55.07 128.91,55.07 129.3,55.08 129.69,55.1 130.08,55.11 130.48,55.1 130.87,55.09 131.26,55.06 131.65,55.03 132.04,55 132.43,54.99 132.83,54.97 133.22,54.96 133.61,54.95 134,54.95 134.39,54.96 134.78,54.98 135.18,55 135.57,55.02 135.96,55.01 136.35,54.99 136.74,54.96 137.13,54.91 137.53,54.87 137.92,54.84 138.31,54.83 138.7,54.84 139.09,54.84 139.49,54.84 139.88,54.81 140.27,54.77 140.66,54.74 141.05,54.72 141.44,54.73 141.84,54.76 142.23,54.79 142.62,54.81 143.01,54.81 143.4,54.81 143.79,54.8 144.19,54.79 144.58,54.77 144.97,54.75 145.36,54.74 145.75,54.73 146.14,54.73 146.54,54.73 146.93,54.73 147.32,54.73 147.71,54.72 148.1,54.71 148.5,54.7 148.89,54.69 149.28,54.69 149.67,54.68 150.06,54.68 150.45,54.67 150.85,54.68 151.24,54.69 151.63,54.7 152.02,54.7 152.41,54.69 152.8,54.67 153.2,54.63 153.59,54.6 153.98,54.59 154.37,54.59 154.76,54.6 155.15,54.62 155.55,54.63 155.94,54.64 156.33,54.64 156.72,54.62 157.11,54.61 157.5,54.59 157.9,54.57 158.29,54.54 158.68,54.51 159.07,54.49 159.46,54.48 159.86,54.47 160.25,54.48 160.64,54.48 161.03,54.49 161.42,54.49 161.81,54.5 162.21,54.5 162.6,54.51 162.99,54.51 163.38,54.5 163.77,54.49 164.16,54.48 164.56,54.48 164.95,54.48 165.34,54.48 165.73,54.48 166.12,54.47 166.51,54.46 166.91,54.44 167.3,54.43 167.69,54.42 168.08,54.42 168.47,54.43 168.86,54.44 169.26,54.44 169.65,54.45 170.04,54.46 170.43,54.47 170.82,54.46 171.22,54.46 171.61,54.45 172,54.44 172.39,54.44 172.78,54.43 173.17,54.42 173.57,54.41 173.96,54.4 174.35,54.4 174.74,54.41 175.13,54.42 175.52,54.41 175.92,54.39 176.31,54.38 176.7,54.37 177.09,54.37 177.48,54.38 177.87,54.38 178.27,54.38 178.66,54.38 179.05,54.38 179.44,54.38 179.83,54.39 180.23,54.4 180.62,54.41 181.01,54.4 181.4,54.4 181.79,54.39 182.18,54.38 182.58,54.39 182.97,54.39 183.36,54.39 183.75,54.38 184.14,54.37 184.53,54.36 184.93,54.36 185.32,54.37 185.71,54.37 186.1,54.37 186.49,54.36 186.88,54.34 187.28,54.33 187.67,54.32 188.06,54.32 188.45,54.32 188.84,54.32 189.23,54.31 189.63,54.3 190.02,54.3 190.41,54.29 190.8,54.29 191.19,54.29 191.59,54.3 191.98,54.31 192.37,54.31 192.76,54.31 193.15,54.3 193.54,54.3 193.94,54.29 194.33,54.29 194.72,54.29 195.11,54.3 195.5,54.3 195.89,54.31 196.29,54.32 196.68,54.32 197.07,54.32 197.46,54.31 197.85,54.3 198.24,54.29 198.64,54.28 199.03,54.26 199.42,54.26 199.81,54.26 200.2,54.26 200.6,54.27 200.99,54.28 201.38,54.28 201.77,54.29 202.16,54.29 202.55,54.29 202.95,54.29 203.34,54.29 203.73,54.29 204.12,54.28 204.51,54.27 204.9,54.26 205.3,54.26 205.69,54.27 206.08,54.27 206.47,54.27 206.86,54.26 207.25,54.25 207.65,54.24 208.04,54.23 208.43,54.23 208.82,54.24 209.21,54.25 209.6,54.26 210,54.26 210.39,54.25 210.78,54.25 211.17,54.23 211.56,54.22 211.96,54.22 212.35,54.21 212.74,54.22 213.13,54.23 213.52,54.23 213.91,54.24 214.31,54.24 214.7,54.23 215.09,54.22 215.48,54.21 215.87,54.21 216.26,54.2 216.66,54.2 217.05,54.2 217.44,54.2 217.83,54.2 218.22,54.2 218.61,54.21 219.01,54.21 219.4,54.21 219.79,54.22 220.18,54.21 220.57,54.21 220.97,54.2 221.36,54.18 221.75,54.18 222.14,54.18 222.53,54.18 222.92,54.19 223.32,54.19 223.71,54.19 224.1,54.18 224.49,54.18 224.88,54.17 225.27,54.17 225.67,54.18 226.06,54.18 226.45,54.18 226.84,54.18 227.23,54.18 227.62,54.18 228.02,54.19 228.41,54.18 228.8,54.18 229.19,54.18 229.58,54.17 229.97,54.17 230.37,54.16 230.76,54.16 231.15,54.16 231.54,54.17 231.93,54.17 232.33,54.17 232.72,54.17 233.11,54.16 233.5,54.16 233.89,54.16 234.28,54.16 234.68,54.16 235.07,54.15 235.46,54.14 235.85,54.13 236.24,54.12 236.63,54.12 237.03,54.12 237.42,54.13 237.81,54.14 238.2,54.15 238.59,54.16 238.98,54.17 239.38,54.17 239.77,54.16 240.16,54.16 240.55,54.15 240.94,54.15 241.33,54.14 241.73,54.14 242.12,54.14 242.51,54.15 242.9,54.16 243.29,54.18 243.69,54.18 244.08,54.19 244.47,54.18 244.86,54.18 245.25,54.18 245.64,54.17 246.04,54.16 246.43,54.15 246.82,54.13 247.21,54.12 247.6,54.12 247.99,54.12 248.39,54.13 248.78,54.14 249.17,54.15 249.56,54.15 249.95,54.14 250.34,54.13 250.74,54.13 251.13,54.12 251.52,54.12 251.91,54.12 252.3,54.12 252.7,54.12 253.09,54.13 253.48,54.14 253.87,54.14 254.26,54.14 254.65,54.14 255.05,54.14 255.44,54.14 255.83,54.15 256.22,54.16 256.61,54.16 257,54.16 257.4,54.14 257.79,54.11 258.18,54.07 258.57,54.04 258.96,54 259.35,53.98 259.75,53.97 260.14,53.97 260.53,53.97" stroke-dasharray="none" stroke="rgb(31,120,180)" stroke-width="0.75" opacity="1" stroke-opacity="1" fill="none"/>
          </g>
          <g id="Fig:densplot_01.xyplot.lines.group.3.panel.1.1.1">
            <polyline id="Fig:densplot_01.xyplot.lines.group.3.panel.1.1.1.1" points="60.86,54.01 61.25,54.39 61.63,56.5 62.02,64.4 62.41,84.54 62.8,119.62 63.19,160.98 63.58,191.9 63.97,201.48 64.36,192.36 64.75,174.54 65.14,156.2 65.53,140.72 65.92,128.47 66.31,118.88 66.7,111.25 67.09,105.14 67.48,100.21 67.87,96.12 68.26,92.59 68.65,89.48 69.04,86.69 69.43,84.16 69.82,81.87 70.21,79.83 70.6,78.02 70.99,76.46 71.38,75.11 71.77,73.92 72.16,72.82 72.55,71.79 72.94,70.79 73.33,69.83 73.72,68.94 74.11,68.16 74.5,67.47 74.89,66.84 75.28,66.32 75.67,65.92 76.06,65.56 76.45,65.14 76.84,64.63 77.23,64.11 77.62,63.66 78.01,63.29 78.4,62.97 78.79,62.66 79.18,62.34 79.57,62.02 79.96,61.7 80.35,61.42 80.74,61.19 81.13,61.02 81.52,60.86 81.91,60.67 82.3,60.45 82.69,60.21 83.08,59.98 83.47,59.76 83.86,59.57 84.25,59.4 84.64,59.25 85.03,59.11 85.42,58.99 85.81,58.9 86.2,58.8 86.59,58.68 86.98,58.57 87.37,58.47 87.76,58.37 88.15,58.26 88.53,58.12 88.92,57.98 89.31,57.87 89.7,57.81 90.09,57.77 90.48,57.72 90.87,57.63 91.26,57.5 91.65,57.38 92.04,57.31 92.43,57.3 92.82,57.3 93.21,57.25 93.6,57.15 93.99,57.04 94.38,56.99 94.77,56.97 95.16,56.95 95.55,56.89 95.94,56.82 96.33,56.75 96.72,56.68 97.11,56.6 97.5,56.53 97.89,56.47 98.28,56.43 98.67,56.4 99.06,56.37 99.45,56.36 99.84,56.35 100.23,56.34 100.62,56.31 101.01,56.27 101.4,56.21 101.79,56.14 102.18,56.08 102.57,56.03 102.96,56 103.35,55.98 103.74,55.98 104.13,55.98 104.52,55.96 104.91,55.94 105.3,55.91 105.69,55.87 106.08,55.84 106.47,55.81 106.86,55.78 107.25,55.73 107.64,55.66 108.03,55.61 108.42,55.6 108.81,55.6 109.2,55.59 109.59,55.57 109.98,55.54 110.37,55.52 110.76,55.51 111.15,55.5 111.54,55.51 111.93,55.5 112.32,55.48 112.71,55.44 113.1,55.39 113.49,55.35 113.88,55.31 114.27,55.29 114.66,55.27 115.05,55.25 115.43,55.24 115.82,55.24 116.21,55.24 116.6,55.25 116.99,55.24 117.38,55.22 117.77,55.18 118.16,55.16 118.55,55.16 118.94,55.17 119.33,55.16 119.72,55.14 120.11,55.12 120.5,55.1 120.89,55.08 121.28,55.07 121.67,55.05 122.06,55.02 122.45,55 122.84,54.99 123.23,54.98 123.62,54.96 124.01,54.94 124.4,54.93 124.79,54.92 125.18,54.92 125.57,54.91 125.96,54.89 126.35,54.87 126.74,54.84 127.13,54.81 127.52,54.78 127.91,54.76 128.3,54.76 128.69,54.77 129.08,54.79 129.47,54.81 129.86,54.83 130.25,54.84 130.64,54.83 131.03,54.8 131.42,54.77 131.81,54.75 132.2,54.75 132.59,54.75 132.98,54.74 133.37,54.72 133.76,54.7 134.15,54.68 134.54,54.69 134.93,54.7 135.32,54.7 135.71,54.7 136.1,54.69 136.49,54.68 136.88,54.68 137.27,54.68 137.66,54.67 138.05,54.65 138.44,54.63 138.83,54.63 139.22,54.64 139.61,54.65 140,54.65 140.39,54.63 140.78,54.61 141.17,54.6 141.56,54.62 141.95,54.64 142.33,54.65 142.72,54.65 143.11,54.64 143.5,54.64 143.89,54.64 144.28,54.64 144.67,54.61 145.06,54.56 145.45,54.52 145.84,54.5 146.23,54.5 146.62,54.5 147.01,54.5 147.4,54.49 147.79,54.5 148.18,54.51 148.57,54.51 148.96,54.5 149.35,54.49 149.74,54.48 150.13,54.47 150.52,54.45 150.91,54.43 151.3,54.42 151.69,54.41 152.08,54.42 152.47,54.42 152.86,54.42 153.25,54.44 153.64,54.45 154.03,54.46 154.42,54.46 154.81,54.46 155.2,54.45 155.59,54.43 155.98,54.42 156.37,54.43 156.76,54.44 157.15,54.45 157.54,54.45 157.93,54.44 158.32,54.41 158.71,54.38 159.1,54.36 159.49,54.36 159.88,54.37 160.27,54.38 160.66,54.39 161.05,54.39 161.44,54.38 161.83,54.37 162.22,54.36 162.61,54.35 163,54.34 163.39,54.34 163.78,54.34 164.17,54.34 164.56,54.33 164.95,54.32 165.34,54.31 165.73,54.3 166.12,54.3 166.51,54.3 166.9,54.29 167.29,54.29 167.68,54.29 168.07,54.3 168.46,54.3 168.85,54.3 169.23,54.31 169.62,54.31 170.01,54.32 170.4,54.32 170.79,54.29 171.18,54.27 171.57,54.25 171.96,54.26 172.35,54.27 172.74,54.28 173.13,54.28 173.52,54.26 173.91,54.26 174.3,54.26 174.69,54.26 175.08,54.28 175.47,54.29 175.86,54.3 176.25,54.3 176.64,54.29 177.03,54.28 177.42,54.27 177.81,54.25 178.2,54.25 178.59,54.24 178.98,54.25 179.37,54.25 179.76,54.26 180.15,54.25 180.54,54.24 180.93,54.24 181.32,54.25 181.71,54.27 182.1,54.29 182.49,54.3 182.88,54.28 183.27,54.25 183.66,54.22 184.05,54.2 184.44,54.2 184.83,54.2 185.22,54.19 185.61,54.19 186,54.19 186.39,54.2 186.78,54.22 187.17,54.24 187.56,54.24 187.95,54.24 188.34,54.24 188.73,54.24 189.12,54.23 189.51,54.23 189.9,54.22 190.29,54.21 190.68,54.2 191.07,54.2 191.46,54.2 191.85,54.21 192.24,54.21 192.63,54.2 193.02,54.2 193.41,54.21 193.8,54.22 194.19,54.22 194.58,54.22 194.97,54.22 195.36,54.21 195.75,54.21 196.13,54.2 196.52,54.2 196.91,54.19 197.3,54.19 197.69,54.18 198.08,54.18 198.47,54.18 198.86,54.18 199.25,54.18 199.64,54.18 200.03,54.19 200.42,54.2 200.81,54.21 201.2,54.2 201.59,54.2 201.98,54.19 202.37,54.18 202.76,54.18 203.15,54.18 203.54,54.17 203.93,54.17 204.32,54.16 204.71,54.15 205.1,54.14 205.49,54.14 205.88,54.14 206.27,54.14 206.66,54.14 207.05,54.14 207.44,54.14 207.83,54.15 208.22,54.16 208.61,54.16 209,54.16 209.39,54.15 209.78,54.14 210.17,54.13 210.56,54.14 210.95,54.15 211.34,54.14 211.73,54.14 212.12,54.13 212.51,54.14 212.9,54.16 213.29,54.17 213.68,54.18 214.07,54.18 214.46,54.18 214.85,54.18 215.24,54.17 215.63,54.16 216.02,54.15 216.41,54.14 216.8,54.14 217.19,54.14 217.58,54.14 217.97,54.14 218.36,54.14 218.75,54.15 219.14,54.15 219.53,54.14 219.92,54.12 220.31,54.12 220.7,54.12 221.09,54.13 221.48,54.14 221.87,54.14 222.26,54.13 222.65,54.12 223.03,54.12 223.42,54.12 223.81,54.12 224.2,54.13 224.59,54.14 224.98,54.15 225.37,54.15 225.76,54.15 226.15,54.15 226.54,54.14 226.93,54.14 227.32,54.14 227.71,54.13 228.1,54.13 228.49,54.12 228.88,54.12 229.27,54.12 229.66,54.13 230.05,54.13 230.44,54.13 230.83,54.14 231.22,54.14 231.61,54.14 232,54.14 232.39,54.13 232.78,54.13 233.17,54.13 233.56,54.14 233.95,54.14 234.34,54.14 234.73,54.13 235.12,54.11 235.51,54.09 235.9,54.08 236.29,54.08 236.68,54.08 237.07,54.09 237.46,54.09 237.85,54.1 238.24,54.1 238.63,54.11 239.02,54.11 239.41,54.1 239.8,54.1 240.19,54.09 240.58,54.09 240.97,54.09 241.36,54.1 241.75,54.1 242.14,54.1 242.53,54.09 242.92,54.09 243.31,54.09 243.7,54.09 244.09,54.09 244.48,54.09 244.87,54.1 245.26,54.1 245.65,54.1 246.04,54.09 246.43,54.08 246.82,54.08 247.21,54.09 247.6,54.09 247.99,54.09 248.38,54.09 248.77,54.08 249.16,54.09 249.55,54.09 249.93,54.09 250.32,54.09 250.71,54.09 251.1,54.09 251.49,54.09 251.88,54.08 252.27,54.08 252.66,54.07 253.05,54.07 253.44,54.08 253.83,54.08 254.22,54.09 254.61,54.09 255,54.09 255.39,54.09 255.78,54.09 256.17,54.1 256.56,54.1 256.95,54.08 257.34,54.07 257.73,54.05 258.12,54.02 258.51,54 258.9,53.98 259.29,53.97 259.68,53.97 260.07,53.97" stroke-dasharray="none" stroke="rgb(31,120,180)" stroke-width="0.75" opacity="1" stroke-opacity="1" fill="none"/>
          </g>
          <g id="Fig:densplot_01.xyplot.lines.group.4.panel.1.1.1">
            <polyline id="Fig:densplot_01.xyplot.lines.group.4.panel.1.1.1.1" points="60.71,53.99 61.1,54.18 61.49,55.37 61.88,60.31 62.27,74.5 62.66,102.64 63.05,141.13 63.44,176.47 63.83,195.43 64.22,195.28 64.61,182.61 65,165.61 65.39,149.26 65.78,135.35 66.17,124.07 66.56,115.13 66.95,108.06 67.34,102.32 67.73,97.48 68.12,93.34 68.51,89.86 68.9,86.97 69.29,84.52 69.68,82.31 70.07,80.24 70.46,78.3 70.85,76.55 71.24,75.02 71.63,73.72 72.02,72.58 72.41,71.54 72.8,70.52 73.19,69.54 73.59,68.64 73.98,67.86 74.37,67.2 74.76,66.61 75.15,66.04 75.54,65.5 75.93,64.98 76.32,64.51 76.71,64.05 77.1,63.6 77.49,63.2 77.88,62.89 78.27,62.63 78.66,62.38 79.05,62.12 79.44,61.86 79.83,61.59 80.22,61.32 80.61,61.07 81,60.85 81.39,60.64 81.78,60.43 82.17,60.18 82.56,59.92 82.95,59.69 83.34,59.54 83.73,59.44 84.12,59.35 84.51,59.23 84.9,59.1 85.29,58.96 85.68,58.84 86.07,58.72 86.46,58.62 86.85,58.53 87.24,58.43 87.64,58.3 88.03,58.17 88.42,58.07 88.81,58.01 89.2,57.96 89.59,57.91 89.98,57.83 90.37,57.75 90.76,57.67 91.15,57.57 91.54,57.45 91.93,57.32 92.32,57.22 92.71,57.16 93.1,57.13 93.49,57.13 93.88,57.13 94.27,57.13 94.66,57.12 95.05,57.07 95.44,56.97 95.83,56.84 96.22,56.72 96.61,56.63 97,56.6 97.39,56.61 97.78,56.62 98.17,56.61 98.56,56.56 98.95,56.48 99.34,56.38 99.73,56.33 100.12,56.31 100.51,56.29 100.9,56.23 101.29,56.17 101.69,56.12 102.08,56.13 102.47,56.15 102.86,56.16 103.25,56.14 103.64,56.1 104.03,56.05 104.42,56.02 104.81,56.01 105.2,56.01 105.59,56.02 105.98,56.02 106.37,55.98 106.76,55.93 107.15,55.89 107.54,55.84 107.93,55.77 108.32,55.67 108.71,55.59 109.1,55.57 109.49,55.6 109.88,55.65 110.27,55.67 110.66,55.65 111.05,55.59 111.44,55.52 111.83,55.47 112.22,55.45 112.61,55.44 113,55.44 113.39,55.42 113.78,55.38 114.17,55.34 114.56,55.3 114.95,55.28 115.35,55.28 115.74,55.29 116.13,55.3 116.52,55.31 116.91,55.3 117.3,55.27 117.69,55.25 118.08,55.23 118.47,55.21 118.86,55.19 119.25,55.18 119.64,55.19 120.03,55.19 120.42,55.19 120.81,55.16 121.2,55.14 121.59,55.13 121.98,55.13 122.37,55.13 122.76,55.14 123.15,55.15 123.54,55.15 123.93,55.12 124.32,55.09 124.71,55.07 125.1,55.06 125.49,55.04 125.88,55.02 126.27,54.99 126.66,54.97 127.05,54.96 127.44,54.95 127.83,54.94 128.22,54.93 128.61,54.93 129,54.92 129.4,54.92 129.79,54.92 130.18,54.9 130.57,54.88 130.96,54.85 131.35,54.83 131.74,54.83 132.13,54.83 132.52,54.84 132.91,54.83 133.3,54.81 133.69,54.77 134.08,54.74 134.47,54.73 134.86,54.73 135.25,54.76 135.64,54.78 136.03,54.79 136.42,54.77 136.81,54.75 137.2,54.72 137.59,54.7 137.98,54.69 138.37,54.71 138.76,54.73 139.15,54.74 139.54,54.72 139.93,54.69 140.32,54.66 140.71,54.66 141.1,54.69 141.49,54.72 141.88,54.74 142.27,54.74 142.66,54.72 143.05,54.7 143.45,54.68 143.84,54.67 144.23,54.65 144.62,54.62 145.01,54.61 145.4,54.6 145.79,54.6 146.18,54.6 146.57,54.59 146.96,54.57 147.35,54.57 147.74,54.59 148.13,54.61 148.52,54.63 148.91,54.63 149.3,54.63 149.69,54.61 150.08,54.59 150.47,54.58 150.86,54.57 151.25,54.56 151.64,54.55 152.03,54.54 152.42,54.53 152.81,54.52 153.2,54.52 153.59,54.52 153.98,54.53 154.37,54.54 154.76,54.55 155.15,54.55 155.54,54.55 155.93,54.54 156.32,54.53 156.71,54.53 157.1,54.52 157.5,54.5 157.89,54.47 158.28,54.44 158.67,54.43 159.06,54.44 159.45,54.46 159.84,54.48 160.23,54.48 160.62,54.47 161.01,54.46 161.4,54.44 161.79,54.43 162.18,54.43 162.57,54.43 162.96,54.44 163.35,54.43 163.74,54.43 164.13,54.42 164.52,54.42 164.91,54.42 165.3,54.41 165.69,54.41 166.08,54.42 166.47,54.42 166.86,54.41 167.25,54.4 167.64,54.39 168.03,54.38 168.42,54.38 168.81,54.38 169.2,54.38 169.59,54.36 169.98,54.35 170.37,54.35 170.76,54.35 171.16,54.35 171.55,54.35 171.94,54.35 172.33,54.34 172.72,54.34 173.11,54.34 173.5,54.34 173.89,54.35 174.28,54.35 174.67,54.34 175.06,54.33 175.45,54.33 175.84,54.34 176.23,54.34 176.62,54.34 177.01,54.33 177.4,54.32 177.79,54.31 178.18,54.3 178.57,54.3 178.96,54.3 179.35,54.31 179.74,54.32 180.13,54.34 180.52,54.35 180.91,54.34 181.3,54.33 181.69,54.31 182.08,54.3 182.47,54.29 182.86,54.29 183.25,54.29 183.64,54.28 184.03,54.27 184.42,54.27 184.81,54.26 185.21,54.26 185.6,54.26 185.99,54.27 186.38,54.29 186.77,54.3 187.16,54.31 187.55,54.3 187.94,54.28 188.33,54.27 188.72,54.26 189.11,54.27 189.5,54.28 189.89,54.29 190.28,54.29 190.67,54.28 191.06,54.27 191.45,54.27 191.84,54.28 192.23,54.29 192.62,54.3 193.01,54.29 193.4,54.28 193.79,54.26 194.18,54.25 194.57,54.25 194.96,54.24 195.35,54.23 195.74,54.23 196.13,54.23 196.52,54.22 196.91,54.22 197.3,54.21 197.69,54.21 198.08,54.21 198.47,54.21 198.86,54.21 199.26,54.22 199.65,54.23 200.04,54.23 200.43,54.23 200.82,54.22 201.21,54.22 201.6,54.22 201.99,54.23 202.38,54.23 202.77,54.24 203.16,54.24 203.55,54.25 203.94,54.25 204.33,54.24 204.72,54.23 205.11,54.23 205.5,54.23 205.89,54.24 206.28,54.24 206.67,54.23 207.06,54.22 207.45,54.21 207.84,54.22 208.23,54.22 208.62,54.22 209.01,54.22 209.4,54.21 209.79,54.21 210.18,54.21 210.57,54.21 210.96,54.2 211.35,54.19 211.74,54.18 212.13,54.18 212.52,54.18 212.91,54.18 213.31,54.19 213.7,54.19 214.09,54.18 214.48,54.18 214.87,54.18 215.26,54.19 215.65,54.19 216.04,54.2 216.43,54.2 216.82,54.2 217.21,54.19 217.6,54.17 217.99,54.16 218.38,54.15 218.77,54.16 219.16,54.17 219.55,54.18 219.94,54.19 220.33,54.19 220.72,54.18 221.11,54.17 221.5,54.16 221.89,54.16 222.28,54.16 222.67,54.16 223.06,54.16 223.45,54.16 223.84,54.17 224.23,54.17 224.62,54.17 225.01,54.17 225.4,54.17 225.79,54.16 226.18,54.16 226.57,54.16 226.97,54.16 227.36,54.16 227.75,54.16 228.14,54.16 228.53,54.17 228.92,54.17 229.31,54.17 229.7,54.16 230.09,54.14 230.48,54.14 230.87,54.15 231.26,54.16 231.65,54.16 232.04,54.16 232.43,54.16 232.82,54.16 233.21,54.16 233.6,54.16 233.99,54.15 234.38,54.15 234.77,54.15 235.16,54.15 235.55,54.14 235.94,54.14 236.33,54.15 236.72,54.16 237.11,54.17 237.5,54.17 237.89,54.16 238.28,54.16 238.67,54.14 239.06,54.14 239.45,54.13 239.84,54.13 240.23,54.13 240.62,54.14 241.02,54.14 241.41,54.14 241.8,54.14 242.19,54.14 242.58,54.13 242.97,54.13 243.36,54.12 243.75,54.12 244.14,54.12 244.53,54.13 244.92,54.13 245.31,54.13 245.7,54.12 246.09,54.12 246.48,54.11 246.87,54.11 247.26,54.1 247.65,54.1 248.04,54.11 248.43,54.13 248.82,54.14 249.21,54.15 249.6,54.14 249.99,54.14 250.38,54.14 250.77,54.14 251.16,54.15 251.55,54.15 251.94,54.15 252.33,54.15 252.72,54.14 253.11,54.13 253.5,54.12 253.89,54.12 254.28,54.12 254.67,54.12 255.07,54.12 255.46,54.11 255.85,54.11 256.24,54.11 256.63,54.11 257.02,54.11 257.41,54.12 257.8,54.1 258.19,54.07 258.58,54.03 258.97,53.99 259.36,53.98 259.75,53.97 260.14,53.97" stroke-dasharray="none" stroke="rgb(31,120,180)" stroke-width="0.75" opacity="1" stroke-opacity="1" fill="none"/>
          </g>
          <g id="Fig:densplot_01.xyplot.lines.group.5.panel.1.1.1">
            <polyline id="Fig:densplot_01.xyplot.lines.group.5.panel.1.1.1.1" points="60.93,54.02 61.32,54.45 61.71,56.78 62.1,65.44 62.49,87.32 62.87,125.15 63.26,169.06 63.65,200.48 64.04,208.33 64.43,196.81 64.82,177.16 65.21,157.62 65.6,141.34 65.99,128.65 66.38,118.85 66.77,111.03 67.16,104.57 67.55,99.19 67.94,94.75 68.33,91.05 68.72,87.83 69.11,84.99 69.5,82.56 69.89,80.46 70.28,78.53 70.67,76.81 71.06,75.36 71.45,74.1 71.84,72.93 72.22,71.81 72.61,70.76 73,69.78 73.39,68.85 73.78,67.99 74.17,67.24 74.56,66.62 74.95,66.08 75.34,65.54 75.73,64.99 76.12,64.47 76.51,64.01 76.9,63.59 77.29,63.15 77.68,62.71 78.07,62.35 78.46,62.07 78.85,61.81 79.24,61.53 79.63,61.27 80.02,61.06 80.41,60.89 80.8,60.71 81.18,60.51 81.57,60.31 81.96,60.09 82.35,59.86 82.74,59.66 83.13,59.49 83.52,59.36 83.91,59.26 84.3,59.16 84.69,59.05 85.08,58.96 85.47,58.84 85.86,58.68 86.25,58.5 86.64,58.32 87.03,58.16 87.42,58.04 87.81,57.96 88.2,57.92 88.59,57.89 88.98,57.86 89.37,57.81 89.76,57.74 90.15,57.66 90.53,57.57 90.92,57.47 91.31,57.35 91.7,57.22 92.09,57.12 92.48,57.04 92.87,56.97 93.26,56.92 93.65,56.89 94.04,56.87 94.43,56.82 94.82,56.76 95.21,56.73 95.6,56.71 95.99,56.7 96.38,56.64 96.77,56.54 97.16,56.44 97.55,56.38 97.94,56.36 98.33,56.33 98.72,56.31 99.11,56.29 99.49,56.29 99.88,56.26 100.27,56.2 100.66,56.12 101.05,56.07 101.44,56.05 101.83,56.04 102.22,56.02 102.61,55.98 103,55.92 103.39,55.87 103.78,55.85 104.17,55.83 104.56,55.79 104.95,55.75 105.34,55.72 105.73,55.72 106.12,55.73 106.51,55.72 106.9,55.69 107.29,55.67 107.68,55.66 108.07,55.65 108.46,55.64 108.84,55.62 109.23,55.61 109.62,55.59 110.01,55.56 110.4,55.53 110.79,55.5 111.18,55.49 111.57,55.47 111.96,55.44 112.35,55.41 112.74,55.38 113.13,55.37 113.52,55.37 113.91,55.36 114.3,55.35 114.69,55.33 115.08,55.32 115.47,55.32 115.86,55.31 116.25,55.27 116.64,55.24 117.03,55.22 117.42,55.21 117.8,55.2 118.19,55.19 118.58,55.19 118.97,55.18 119.36,55.16 119.75,55.13 120.14,55.11 120.53,55.1 120.92,55.08 121.31,55.05 121.7,55.02 122.09,55 122.48,54.99 122.87,54.99 123.26,54.99 123.65,54.99 124.04,54.99 124.43,55.01 124.82,55.03 125.21,55.04 125.6,55.01 125.99,54.95 126.38,54.89 126.77,54.86 127.15,54.87 127.54,54.88 127.93,54.88 128.32,54.89 128.71,54.89 129.1,54.88 129.49,54.87 129.88,54.84 130.27,54.8 130.66,54.78 131.05,54.79 131.44,54.81 131.83,54.83 132.22,54.83 132.61,54.8 133,54.78 133.39,54.76 133.78,54.76 134.17,54.77 134.56,54.78 134.95,54.78 135.34,54.76 135.73,54.73 136.11,54.71 136.5,54.7 136.89,54.69 137.28,54.67 137.67,54.65 138.06,54.64 138.45,54.64 138.84,54.63 139.23,54.62 139.62,54.62 140.01,54.62 140.4,54.62 140.79,54.64 141.18,54.65 141.57,54.65 141.96,54.63 142.35,54.62 142.74,54.62 143.13,54.63 143.52,54.63 143.91,54.62 144.3,54.6 144.69,54.59 145.08,54.6 145.46,54.6 145.85,54.59 146.24,54.58 146.63,54.56 147.02,54.56 147.41,54.56 147.8,54.57 148.19,54.58 148.58,54.59 148.97,54.58 149.36,54.55 149.75,54.52 150.14,54.49 150.53,54.47 150.92,54.46 151.31,54.47 151.7,54.49 152.09,54.5 152.48,54.5 152.87,54.5 153.26,54.5 153.65,54.5 154.04,54.5 154.42,54.48 154.81,54.47 155.2,54.45 155.59,54.45 155.98,54.44 156.37,54.43 156.76,54.42 157.15,54.42 157.54,54.42 157.93,54.41 158.32,54.41 158.71,54.42 159.1,54.43 159.49,54.43 159.88,54.44 160.27,54.44 160.66,54.45 161.05,54.45 161.44,54.44 161.83,54.43 162.22,54.42 162.61,54.41 163,54.4 163.38,54.39 163.77,54.39 164.16,54.38 164.55,54.37 164.94,54.36 165.33,54.36 165.72,54.37 166.11,54.37 166.5,54.37 166.89,54.37 167.28,54.39 167.67,54.4 168.06,54.41 168.45,54.39 168.84,54.37 169.23,54.34 169.62,54.33 170.01,54.32 170.4,54.32 170.79,54.33 171.18,54.33 171.57,54.34 171.96,54.36 172.35,54.37 172.73,54.38 173.12,54.38 173.51,54.37 173.9,54.37 174.29,54.36 174.68,54.34 175.07,54.32 175.46,54.29 175.85,54.27 176.24,54.28 176.63,54.29 177.02,54.3 177.41,54.29 177.8,54.29 178.19,54.29 178.58,54.29 178.97,54.29 179.36,54.28 179.75,54.27 180.14,54.27 180.53,54.27 180.92,54.26 181.31,54.26 181.69,54.27 182.08,54.28 182.47,54.28 182.86,54.27 183.25,54.26 183.64,54.26 184.03,54.26 184.42,54.27 184.81,54.29 185.2,54.3 185.59,54.3 185.98,54.28 186.37,54.25 186.76,54.24 187.15,54.23 187.54,54.23 187.93,54.24 188.32,54.25 188.71,54.25 189.1,54.24 189.49,54.23 189.88,54.23 190.27,54.23 190.66,54.24 191.04,54.23 191.43,54.22 191.82,54.22 192.21,54.22 192.6,54.23 192.99,54.24 193.38,54.25 193.77,54.25 194.16,54.25 194.55,54.23 194.94,54.21 195.33,54.21 195.72,54.21 196.11,54.21 196.5,54.22 196.89,54.24 197.28,54.25 197.67,54.25 198.06,54.25 198.45,54.25 198.84,54.24 199.23,54.23 199.62,54.21 200,54.19 200.39,54.18 200.78,54.18 201.17,54.19 201.56,54.2 201.95,54.2 202.34,54.21 202.73,54.21 203.12,54.21 203.51,54.22 203.9,54.22 204.29,54.21 204.68,54.21 205.07,54.2 205.46,54.2 205.85,54.2 206.24,54.2 206.63,54.2 207.02,54.21 207.41,54.2 207.8,54.19 208.19,54.17 208.58,54.16 208.97,54.16 209.35,54.17 209.74,54.18 210.13,54.19 210.52,54.19 210.91,54.19 211.3,54.2 211.69,54.2 212.08,54.19 212.47,54.19 212.86,54.19 213.25,54.19 213.64,54.19 214.03,54.19 214.42,54.18 214.81,54.16 215.2,54.14 215.59,54.14 215.98,54.15 216.37,54.16 216.76,54.17 217.15,54.19 217.54,54.19 217.93,54.18 218.31,54.17 218.7,54.15 219.09,54.13 219.48,54.12 219.87,54.12 220.26,54.12 220.65,54.13 221.04,54.13 221.43,54.13 221.82,54.13 222.21,54.14 222.6,54.15 222.99,54.16 223.38,54.15 223.77,54.13 224.16,54.12 224.55,54.12 224.94,54.13 225.33,54.13 225.72,54.14 226.11,54.14 226.5,54.14 226.89,54.14 227.28,54.15 227.66,54.15 228.05,54.15 228.44,54.14 228.83,54.13 229.22,54.12 229.61,54.13 230,54.15 230.39,54.16 230.78,54.16 231.17,54.16 231.56,54.16 231.95,54.16 232.34,54.16 232.73,54.16 233.12,54.15 233.51,54.14 233.9,54.13 234.29,54.12 234.68,54.12 235.07,54.11 235.46,54.12 235.85,54.12 236.24,54.13 236.62,54.13 237.01,54.13 237.4,54.12 237.79,54.11 238.18,54.11 238.57,54.12 238.96,54.12 239.35,54.11 239.74,54.1 240.13,54.09 240.52,54.1 240.91,54.11 241.3,54.12 241.69,54.13 242.08,54.12 242.47,54.11 242.86,54.1 243.25,54.1 243.64,54.11 244.03,54.11 244.42,54.11 244.81,54.11 245.2,54.12 245.59,54.12 245.97,54.12 246.36,54.11 246.75,54.11 247.14,54.11 247.53,54.11 247.92,54.1 248.31,54.1 248.7,54.11 249.09,54.11 249.48,54.11 249.87,54.11 250.26,54.11 250.65,54.12 251.04,54.13 251.43,54.13 251.82,54.11 252.21,54.1 252.6,54.09 252.99,54.09 253.38,54.08 253.77,54.08 254.16,54.09 254.55,54.09 254.93,54.1 255.32,54.11 255.71,54.12 256.1,54.12 256.49,54.1 256.88,54.1 257.27,54.09 257.66,54.08 258.05,54.05 258.44,54.02 258.83,53.99 259.22,53.97 259.61,53.97 260,53.97" stroke-dasharray="none" stroke="rgb(31,120,180)" stroke-width="0.75" opacity="1" stroke-opacity="1" fill="none"/>
          </g>
          <g id="Fig:densplot_01.xyplot.lines.group.6.panel.1.1.1">
            <polyline id="Fig:densplot_01.xyplot.lines.group.6.panel.1.1.1.1" points="60.95,54.01 61.34,54.34 61.73,56.25 62.12,63.6 62.5,82.94 62.89,117.97 63.28,160.86 63.67,193.99 64.06,205.2 64.45,196.93 64.84,179.4 65.23,160.76 65.62,144.6 66.01,131.59 66.4,121.28 66.79,113.07 67.18,106.48 67.57,101.04 67.96,96.39 68.35,92.43 68.74,89.14 69.13,86.31 69.52,83.74 69.91,81.42 70.29,79.42 70.68,77.67 71.07,76.04 71.46,74.53 71.85,73.22 72.24,72.12 72.63,71.14 73.02,70.22 73.41,69.29 73.8,68.39 74.19,67.55 74.58,66.78 74.97,66.11 75.36,65.55 75.75,65.08 76.14,64.61 76.53,64.12 76.92,63.64 77.31,63.23 77.7,62.91 78.08,62.62 78.47,62.3 78.86,61.99 79.25,61.72 79.64,61.47 80.03,61.2 80.42,60.93 80.81,60.68 81.2,60.48 81.59,60.3 81.98,60.11 82.37,59.89 82.76,59.67 83.15,59.48 83.54,59.33 83.93,59.19 84.32,59.03 84.71,58.86 85.1,58.72 85.49,58.61 85.87,58.52 86.26,58.43 86.65,58.33 87.04,58.23 87.43,58.15 87.82,58.09 88.21,58.04 88.6,57.98 88.99,57.91 89.38,57.81 89.77,57.71 90.16,57.63 90.55,57.56 90.94,57.47 91.33,57.37 91.72,57.27 92.11,57.2 92.5,57.13 92.89,57.07 93.28,57.01 93.66,56.95 94.05,56.89 94.44,56.81 94.83,56.72 95.22,56.63 95.61,56.54 96,56.46 96.39,56.43 96.78,56.43 97.17,56.44 97.56,56.45 97.95,56.45 98.34,56.44 98.73,56.4 99.12,56.35 99.51,56.31 99.9,56.27 100.29,56.21 100.68,56.15 101.07,56.11 101.45,56.1 101.84,56.09 102.23,56.08 102.62,56.06 103.01,56.04 103.4,56.03 103.79,56.02 104.18,56.02 104.57,55.99 104.96,55.94 105.35,55.88 105.74,55.82 106.13,55.75 106.52,55.69 106.91,55.65 107.3,55.64 107.69,55.62 108.08,55.59 108.47,55.56 108.85,55.55 109.24,55.53 109.63,55.51 110.02,55.49 110.41,55.46 110.8,55.46 111.19,55.46 111.58,55.45 111.97,55.43 112.36,55.4 112.75,55.38 113.14,55.34 113.53,55.3 113.92,55.27 114.31,55.26 114.7,55.27 115.09,55.25 115.48,55.22 115.87,55.19 116.26,55.2 116.64,55.21 117.03,55.21 117.42,55.19 117.81,55.18 118.2,55.19 118.59,55.18 118.98,55.15 119.37,55.1 119.76,55.05 120.15,55.02 120.54,55.01 120.93,55.01 121.32,55.02 121.71,55.02 122.1,54.99 122.49,54.96 122.88,54.94 123.27,54.97 123.66,55.02 124.05,55.04 124.43,55.03 124.82,54.99 125.21,54.93 125.6,54.89 125.99,54.89 126.38,54.9 126.77,54.92 127.16,54.93 127.55,54.92 127.94,54.91 128.33,54.9 128.72,54.89 129.11,54.87 129.5,54.84 129.89,54.81 130.28,54.78 130.67,54.76 131.06,54.74 131.45,54.72 131.84,54.73 132.22,54.75 132.61,54.76 133,54.76 133.39,54.75 133.78,54.74 134.17,54.76 134.56,54.77 134.95,54.77 135.34,54.77 135.73,54.76 136.12,54.75 136.51,54.74 136.9,54.72 137.29,54.7 137.68,54.67 138.07,54.64 138.46,54.63 138.85,54.62 139.24,54.61 139.63,54.6 140.01,54.59 140.4,54.58 140.79,54.59 141.18,54.61 141.57,54.61 141.96,54.59 142.35,54.57 142.74,54.57 143.13,54.58 143.52,54.58 143.91,54.59 144.3,54.6 144.69,54.61 145.08,54.61 145.47,54.58 145.86,54.56 146.25,54.54 146.64,54.56 147.03,54.58 147.42,54.6 147.8,54.6 148.19,54.59 148.58,54.57 148.97,54.56 149.36,54.54 149.75,54.53 150.14,54.52 150.53,54.52 150.92,54.51 151.31,54.49 151.7,54.47 152.09,54.48 152.48,54.49 152.87,54.51 153.26,54.51 153.65,54.49 154.04,54.46 154.43,54.42 154.82,54.41 155.2,54.41 155.59,54.43 155.98,54.43 156.37,54.41 156.76,54.38 157.15,54.36 157.54,54.36 157.93,54.38 158.32,54.4 158.71,54.4 159.1,54.4 159.49,54.41 159.88,54.43 160.27,54.44 160.66,54.44 161.05,54.42 161.44,54.4 161.83,54.38 162.22,54.36 162.61,54.36 162.99,54.36 163.38,54.36 163.77,54.37 164.16,54.38 164.55,54.39 164.94,54.4 165.33,54.39 165.72,54.39 166.11,54.39 166.5,54.4 166.89,54.4 167.28,54.39 167.67,54.38 168.06,54.36 168.45,54.35 168.84,54.35 169.23,54.35 169.62,54.35 170.01,54.35 170.4,54.36 170.78,54.37 171.17,54.39 171.56,54.39 171.95,54.38 172.34,54.36 172.73,54.35 173.12,54.35 173.51,54.35 173.9,54.34 174.29,54.33 174.68,54.32 175.07,54.32 175.46,54.33 175.85,54.33 176.24,54.32 176.63,54.29 177.02,54.28 177.41,54.27 177.8,54.27 178.19,54.28 178.57,54.3 178.96,54.31 179.35,54.32 179.74,54.32 180.13,54.32 180.52,54.31 180.91,54.3 181.3,54.29 181.69,54.28 182.08,54.29 182.47,54.3 182.86,54.3 183.25,54.3 183.64,54.29 184.03,54.28 184.42,54.27 184.81,54.26 185.2,54.26 185.59,54.26 185.98,54.26 186.36,54.25 186.75,54.24 187.14,54.22 187.53,54.21 187.92,54.22 188.31,54.22 188.7,54.23 189.09,54.23 189.48,54.24 189.87,54.25 190.26,54.26 190.65,54.26 191.04,54.27 191.43,54.27 191.82,54.27 192.21,54.25 192.6,54.25 192.99,54.25 193.38,54.25 193.77,54.23 194.15,54.22 194.54,54.2 194.93,54.19 195.32,54.18 195.71,54.19 196.1,54.21 196.49,54.23 196.88,54.25 197.27,54.24 197.66,54.21 198.05,54.19 198.44,54.19 198.83,54.19 199.22,54.2 199.61,54.2 200,54.2 200.39,54.2 200.78,54.21 201.17,54.22 201.55,54.22 201.94,54.23 202.33,54.23 202.72,54.22 203.11,54.2 203.5,54.19 203.89,54.18 204.28,54.18 204.67,54.17 205.06,54.16 205.45,54.16 205.84,54.16 206.23,54.16 206.62,54.17 207.01,54.18 207.4,54.18 207.79,54.18 208.18,54.18 208.57,54.17 208.96,54.16 209.34,54.15 209.73,54.15 210.12,54.15 210.51,54.16 210.9,54.16 211.29,54.16 211.68,54.16 212.07,54.17 212.46,54.18 212.85,54.19 213.24,54.19 213.63,54.19 214.02,54.19 214.41,54.18 214.8,54.16 215.19,54.15 215.58,54.14 215.97,54.14 216.36,54.15 216.75,54.15 217.13,54.14 217.52,54.13 217.91,54.14 218.3,54.15 218.69,54.15 219.08,54.14 219.47,54.14 219.86,54.15 220.25,54.15 220.64,54.15 221.03,54.16 221.42,54.17 221.81,54.17 222.2,54.16 222.59,54.15 222.98,54.14 223.37,54.15 223.76,54.17 224.15,54.18 224.54,54.17 224.92,54.16 225.31,54.15 225.7,54.15 226.09,54.15 226.48,54.15 226.87,54.14 227.26,54.13 227.65,54.13 228.04,54.14 228.43,54.15 228.82,54.15 229.21,54.14 229.6,54.14 229.99,54.15 230.38,54.15 230.77,54.15 231.16,54.14 231.55,54.13 231.94,54.13 232.33,54.12 232.71,54.13 233.1,54.12 233.49,54.12 233.88,54.12 234.27,54.12 234.66,54.13 235.05,54.13 235.44,54.13 235.83,54.13 236.22,54.12 236.61,54.12 237,54.11 237.39,54.11 237.78,54.1 238.17,54.1 238.56,54.1 238.95,54.1 239.34,54.11 239.73,54.12 240.12,54.12 240.5,54.12 240.89,54.12 241.28,54.12 241.67,54.12 242.06,54.13 242.45,54.13 242.84,54.13 243.23,54.12 243.62,54.13 244.01,54.13 244.4,54.14 244.79,54.13 245.18,54.12 245.57,54.11 245.96,54.1 246.35,54.09 246.74,54.09 247.13,54.09 247.52,54.09 247.91,54.09 248.29,54.1 248.68,54.1 249.07,54.11 249.46,54.12 249.85,54.11 250.24,54.1 250.63,54.1 251.02,54.1 251.41,54.11 251.8,54.12 252.19,54.12 252.58,54.11 252.97,54.1 253.36,54.1 253.75,54.1 254.14,54.11 254.53,54.1 254.92,54.1 255.31,54.1 255.69,54.1 256.08,54.1 256.47,54.1 256.86,54.1 257.25,54.1 257.64,54.09 258.03,54.07 258.42,54.03 258.81,54 259.2,53.98 259.59,53.97 259.98,53.97" stroke-dasharray="none" stroke="rgb(31,120,180)" stroke-width="0.75" opacity="1" stroke-opacity="1" fill="none"/>
          </g>
          <g id="Fig:densplot_01.xyplot.lines.group.7.panel.1.1.1">
            <polyline id="Fig:densplot_01.xyplot.lines.group.7.panel.1.1.1.1" points="59,53.98 59.4,54.02 59.79,54.14 60.19,54.45 60.59,55.18 60.98,56.71 61.38,59.58 61.78,64.35 62.18,71.44 62.57,80.84 62.97,91.94 63.37,103.57 63.76,114.23 64.16,122.57 64.56,127.73 64.95,129.56 65.35,128.49 65.75,125.34 66.14,120.97 66.54,116.1 66.94,111.2 67.33,106.54 67.73,102.25 68.13,98.36 68.53,94.88 68.92,91.8 69.32,89.08 69.72,86.69 70.11,84.59 70.51,82.72 70.91,81.05 71.3,79.55 71.7,78.18 72.1,76.94 72.49,75.8 72.89,74.74 73.29,73.76 73.68,72.85 74.08,72 74.48,71.21 74.88,70.48 75.27,69.79 75.67,69.16 76.07,68.57 76.46,68.02 76.86,67.51 77.26,67.03 77.65,66.58 78.05,66.16 78.45,65.76 78.84,65.37 79.24,65 79.64,64.65 80.03,64.32 80.43,64 80.83,63.7 81.23,63.41 81.62,63.14 82.02,62.89 82.42,62.65 82.81,62.42 83.21,62.21 83.61,62 84,61.81 84.4,61.62 84.8,61.44 85.19,61.27 85.59,61.09 85.99,60.92 86.38,60.75 86.78,60.57 87.18,60.41 87.58,60.25 87.97,60.11 88.37,59.98 88.77,59.85 89.16,59.74 89.56,59.63 89.96,59.53 90.35,59.43 90.75,59.35 91.15,59.27 91.54,59.2 91.94,59.13 92.34,59.06 92.73,58.98 93.13,58.89 93.53,58.8 93.93,58.7 94.32,58.61 94.72,58.51 95.12,58.43 95.51,58.34 95.91,58.25 96.31,58.16 96.7,58.08 97.1,58 97.5,57.93 97.89,57.87 98.29,57.82 98.69,57.77 99.08,57.73 99.48,57.68 99.88,57.62 100.28,57.56 100.67,57.49 101.07,57.42 101.47,57.36 101.86,57.3 102.26,57.26 102.66,57.22 103.05,57.18 103.45,57.16 103.85,57.14 104.24,57.12 104.64,57.1 105.04,57.07 105.43,57.04 105.83,57 106.23,56.97 106.63,56.93 107.02,56.9 107.42,56.87 107.82,56.83 108.21,56.79 108.61,56.75 109.01,56.7 109.4,56.66 109.8,56.62 110.2,56.59 110.59,56.56 110.99,56.53 111.39,56.5 111.78,56.48 112.18,56.45 112.58,56.41 112.98,56.38 113.37,56.34 113.77,56.3 114.17,56.27 114.56,56.24 114.96,56.22 115.36,56.2 115.75,56.2 116.15,56.19 116.55,56.18 116.94,56.17 117.34,56.15 117.74,56.13 118.13,56.1 118.53,56.08 118.93,56.06 119.33,56.04 119.72,56.02 120.12,56.01 120.52,55.99 120.91,55.97 121.31,55.95 121.71,55.93 122.1,55.91 122.5,55.88 122.9,55.86 123.29,55.83 123.69,55.8 124.09,55.77 124.48,55.74 124.88,55.72 125.28,55.71 125.68,55.7 126.07,55.69 126.47,55.68 126.87,55.66 127.26,55.64 127.66,55.61 128.06,55.59 128.45,55.56 128.85,55.55 129.25,55.54 129.64,55.54 130.04,55.54 130.44,55.54 130.83,55.53 131.23,55.53 131.63,55.52 132.03,55.5 132.42,55.49 132.82,55.47 133.22,55.46 133.61,55.45 134.01,55.44 134.41,55.43 134.8,55.41 135.2,55.39 135.6,55.37 135.99,55.34 136.39,55.32 136.79,55.29 137.18,55.27 137.58,55.25 137.98,55.24 138.38,55.23 138.77,55.23 139.17,55.23 139.57,55.23 139.96,55.23 140.36,55.22 140.76,55.21 141.15,55.2 141.55,55.19 141.95,55.17 142.34,55.15 142.74,55.13 143.14,55.11 143.53,55.09 143.93,55.08 144.33,55.07 144.73,55.07 145.12,55.07 145.52,55.07 145.92,55.07 146.31,55.08 146.71,55.08 147.11,55.08 147.5,55.08 147.9,55.08 148.3,55.07 148.69,55.06 149.09,55.06 149.49,55.05 149.88,55.05 150.28,55.04 150.68,55.04 151.08,55.04 151.47,55.03 151.87,55.03 152.27,55.02 152.66,55.02 153.06,55.02 153.46,55.01 153.85,55.01 154.25,55 154.65,54.99 155.04,54.98 155.44,54.97 155.84,54.95 156.23,54.93 156.63,54.91 157.03,54.89 157.43,54.87 157.82,54.86 158.22,54.85 158.62,54.84 159.01,54.83 159.41,54.84 159.81,54.84 160.2,54.85 160.6,54.85 161,54.86 161.39,54.86 161.79,54.85 162.19,54.85 162.58,54.84 162.98,54.83 163.38,54.81 163.78,54.8 164.17,54.79 164.57,54.78 164.97,54.78 165.36,54.77 165.76,54.77 166.16,54.76 166.55,54.75 166.95,54.74 167.35,54.74 167.74,54.73 168.14,54.72 168.54,54.72 168.93,54.72 169.33,54.72 169.73,54.72 170.13,54.72 170.52,54.71 170.92,54.7 171.32,54.68 171.71,54.67 172.11,54.67 172.51,54.66 172.9,54.66 173.3,54.66 173.7,54.66 174.09,54.66 174.49,54.66 174.89,54.65 175.28,54.65 175.68,54.64 176.08,54.64 176.48,54.63 176.87,54.63 177.27,54.63 177.67,54.63 178.06,54.64 178.46,54.64 178.86,54.64 179.25,54.64 179.65,54.64 180.05,54.64 180.44,54.63 180.84,54.63 181.24,54.63 181.63,54.63 182.03,54.63 182.43,54.62 182.83,54.62 183.22,54.61 183.62,54.61 184.02,54.6 184.41,54.59 184.81,54.58 185.21,54.57 185.6,54.56 186,54.56 186.4,54.56 186.79,54.56 187.19,54.56 187.59,54.56 187.98,54.55 188.38,54.55 188.78,54.54 189.18,54.53 189.57,54.52 189.97,54.52 190.37,54.51 190.76,54.51 191.16,54.51 191.56,54.52 191.95,54.52 192.35,54.51 192.75,54.51 193.14,54.5 193.54,54.49 193.94,54.49 194.33,54.49 194.73,54.49 195.13,54.5 195.53,54.5 195.92,54.5 196.32,54.5 196.72,54.49 197.11,54.49 197.51,54.48 197.91,54.48 198.3,54.47 198.7,54.47 199.1,54.46 199.49,54.46 199.89,54.46 200.29,54.46 200.68,54.45 201.08,54.45 201.48,54.45 201.88,54.45 202.27,54.45 202.67,54.44 203.07,54.43 203.46,54.42 203.86,54.42 204.26,54.41 204.65,54.4 205.05,54.4 205.45,54.4 205.84,54.4 206.24,54.4 206.64,54.4 207.03,54.4 207.43,54.4 207.83,54.39 208.23,54.39 208.62,54.39 209.02,54.4 209.42,54.4 209.81,54.4 210.21,54.4 210.61,54.4 211,54.39 211.4,54.39 211.8,54.39 212.19,54.38 212.59,54.38 212.99,54.38 213.38,54.37 213.78,54.36 214.18,54.36 214.58,54.36 214.97,54.36 215.37,54.37 215.77,54.37 216.16,54.38 216.56,54.38 216.96,54.38 217.35,54.37 217.75,54.37 218.15,54.36 218.54,54.35 218.94,54.35 219.34,54.34 219.73,54.34 220.13,54.34 220.53,54.34 220.93,54.34 221.32,54.34 221.72,54.34 222.12,54.34 222.51,54.33 222.91,54.33 223.31,54.32 223.7,54.32 224.1,54.32 224.5,54.32 224.89,54.31 225.29,54.31 225.69,54.32 226.08,54.32 226.48,54.32 226.88,54.32 227.28,54.33 227.67,54.33 228.07,54.33 228.47,54.32 228.86,54.32 229.26,54.31 229.66,54.3 230.05,54.29 230.45,54.28 230.85,54.27 231.24,54.27 231.64,54.27 232.04,54.27 232.43,54.27 232.83,54.28 233.23,54.28 233.63,54.29 234.02,54.29 234.42,54.3 234.82,54.3 235.21,54.3 235.61,54.3 236.01,54.3 236.4,54.29 236.8,54.29 237.2,54.28 237.59,54.28 237.99,54.27 238.39,54.27 238.78,54.26 239.18,54.26 239.58,54.26 239.98,54.27 240.37,54.27 240.77,54.27 241.17,54.28 241.56,54.28 241.96,54.28 242.36,54.28 242.75,54.27 243.15,54.27 243.55,54.26 243.94,54.25 244.34,54.25 244.74,54.24 245.13,54.24 245.53,54.23 245.93,54.23 246.33,54.23 246.72,54.22 247.12,54.22 247.52,54.22 247.91,54.22 248.31,54.22 248.71,54.22 249.1,54.23 249.5,54.23 249.9,54.23 250.29,54.23 250.69,54.23 251.09,54.23 251.48,54.23 251.88,54.23 252.28,54.23 252.68,54.23 253.07,54.23 253.47,54.23 253.87,54.23 254.26,54.23 254.66,54.22 255.06,54.22 255.45,54.21 255.85,54.2 256.25,54.19 256.64,54.18 257.04,54.16 257.44,54.14 257.83,54.12 258.23,54.09 258.63,54.06 259.03,54.03 259.42,54.01 259.82,53.99 260.22,53.98 260.61,53.97 261.01,53.97 261.41,53.97 261.8,53.97" stroke-dasharray="none" stroke="rgb(31,120,180)" stroke-width="0.75" opacity="1" stroke-opacity="1" fill="none"/>
          </g>
          <g id="Fig:densplot_01.xyplot.lines.group.8.panel.1.1.1">
            <polyline id="Fig:densplot_01.xyplot.lines.group.8.panel.1.1.1.1" points="60.48,53.99 60.87,54.17 61.26,55.01 61.66,58.08 62.05,66.47 62.44,83.74 62.83,110.56 63.22,141.73 63.61,167.9 64,181.52 64.39,181.38 64.78,171.68 65.18,157.98 65.57,144.22 65.96,132.19 66.35,122.26 66.74,114.19 67.13,107.53 67.52,101.88 67.91,97.02 68.31,92.83 68.7,89.27 69.09,86.26 69.48,83.65 69.87,81.36 70.26,79.34 70.65,77.55 71.04,75.99 71.43,74.62 71.83,73.4 72.22,72.29 72.61,71.23 73,70.22 73.39,69.28 73.78,68.47 74.17,67.77 74.56,67.16 74.95,66.58 75.35,66.02 75.74,65.49 76.13,65.03 76.52,64.63 76.91,64.26 77.3,63.89 77.69,63.51 78.08,63.14 78.48,62.78 78.87,62.45 79.26,62.14 79.65,61.85 80.04,61.58 80.43,61.32 80.82,61.09 81.21,60.89 81.6,60.74 82,60.63 82.39,60.5 82.78,60.33 83.17,60.15 83.56,59.98 83.95,59.82 84.34,59.66 84.73,59.49 85.12,59.32 85.52,59.17 85.91,59.03 86.3,58.93 86.69,58.84 87.08,58.73 87.47,58.6 87.86,58.47 88.25,58.36 88.65,58.27 89.04,58.19 89.43,58.1 89.82,58 90.21,57.92 90.6,57.85 90.99,57.79 91.38,57.74 91.77,57.68 92.17,57.61 92.56,57.52 92.95,57.41 93.34,57.3 93.73,57.21 94.12,57.16 94.51,57.14 94.9,57.14 95.29,57.14 95.69,57.11 96.08,57.05 96.47,56.97 96.86,56.9 97.25,56.84 97.64,56.8 98.03,56.78 98.42,56.78 98.82,56.78 99.21,56.75 99.6,56.7 99.99,56.63 100.38,56.57 100.77,56.53 101.16,56.5 101.55,56.46 101.94,56.41 102.34,56.36 102.73,56.32 103.12,56.29 103.51,56.26 103.9,56.21 104.29,56.16 104.68,56.12 105.07,56.1 105.46,56.08 105.86,56.06 106.25,56.06 106.64,56.06 107.03,56.05 107.42,56.04 107.81,56 108.2,55.96 108.59,55.94 108.99,55.93 109.38,55.93 109.77,55.92 110.16,55.88 110.55,55.84 110.94,55.8 111.33,55.78 111.72,55.76 112.11,55.74 112.51,55.7 112.9,55.65 113.29,55.6 113.68,55.56 114.07,55.53 114.46,55.51 114.85,55.49 115.24,55.49 115.64,55.5 116.03,55.52 116.42,55.53 116.81,55.51 117.2,55.47 117.59,55.41 117.98,55.35 118.37,55.3 118.76,55.29 119.16,55.3 119.55,55.33 119.94,55.37 120.33,55.38 120.72,55.36 121.11,55.32 121.5,55.27 121.89,55.25 122.28,55.25 122.68,55.26 123.07,55.26 123.46,55.25 123.85,55.23 124.24,55.22 124.63,55.21 125.02,55.2 125.41,55.18 125.81,55.16 126.2,55.14 126.59,55.14 126.98,55.13 127.37,55.12 127.76,55.11 128.15,55.1 128.54,55.09 128.93,55.08 129.33,55.07 129.72,55.06 130.11,55.05 130.5,55.03 130.89,55.02 131.28,54.99 131.67,54.97 132.06,54.96 132.45,54.96 132.85,54.96 133.24,54.96 133.63,54.94 134.02,54.92 134.41,54.89 134.8,54.88 135.19,54.86 135.58,54.86 135.98,54.86 136.37,54.87 136.76,54.88 137.15,54.89 137.54,54.89 137.93,54.9 138.32,54.9 138.71,54.89 139.1,54.87 139.5,54.84 139.89,54.82 140.28,54.8 140.67,54.79 141.06,54.77 141.45,54.77 141.84,54.78 142.23,54.8 142.62,54.81 143.02,54.8 143.41,54.78 143.8,54.76 144.19,54.75 144.58,54.75 144.97,54.75 145.36,54.74 145.75,54.75 146.15,54.76 146.54,54.76 146.93,54.74 147.32,54.73 147.71,54.71 148.1,54.69 148.49,54.67 148.88,54.66 149.27,54.65 149.67,54.66 150.06,54.68 150.45,54.7 150.84,54.72 151.23,54.72 151.62,54.7 152.01,54.66 152.4,54.63 152.79,54.62 153.19,54.62 153.58,54.63 153.97,54.65 154.36,54.67 154.75,54.67 155.14,54.66 155.53,54.64 155.92,54.61 156.32,54.59 156.71,54.57 157.1,54.57 157.49,54.57 157.88,54.58 158.27,54.59 158.66,54.6 159.05,54.59 159.44,54.58 159.84,54.57 160.23,54.56 160.62,54.55 161.01,54.54 161.4,54.53 161.79,54.53 162.18,54.52 162.57,54.51 162.96,54.5 163.36,54.51 163.75,54.51 164.14,54.51 164.53,54.5 164.92,54.48 165.31,54.46 165.7,54.45 166.09,54.44 166.49,54.43 166.88,54.42 167.27,54.43 167.66,54.44 168.05,54.45 168.44,54.46 168.83,54.47 169.22,54.48 169.61,54.47 170.01,54.46 170.4,54.45 170.79,54.44 171.18,54.43 171.57,54.42 171.96,54.43 172.35,54.44 172.74,54.46 173.13,54.46 173.53,54.45 173.92,54.44 174.31,54.42 174.7,54.41 175.09,54.41 175.48,54.41 175.87,54.4 176.26,54.4 176.66,54.39 177.05,54.38 177.44,54.38 177.83,54.38 178.22,54.39 178.61,54.4 179,54.4 179.39,54.39 179.78,54.38 180.18,54.37 180.57,54.37 180.96,54.38 181.35,54.38 181.74,54.38 182.13,54.37 182.52,54.36 182.91,54.35 183.3,54.35 183.7,54.34 184.09,54.33 184.48,54.34 184.87,54.35 185.26,54.36 185.65,54.37 186.04,54.38 186.43,54.37 186.83,54.36 187.22,54.36 187.61,54.35 188,54.35 188.39,54.36 188.78,54.37 189.17,54.38 189.56,54.39 189.95,54.38 190.35,54.35 190.74,54.32 191.13,54.3 191.52,54.28 191.91,54.28 192.3,54.28 192.69,54.29 193.08,54.3 193.48,54.32 193.87,54.33 194.26,54.34 194.65,54.34 195.04,54.34 195.43,54.33 195.82,54.32 196.21,54.31 196.6,54.3 197,54.3 197.39,54.29 197.78,54.28 198.17,54.28 198.56,54.28 198.95,54.27 199.34,54.27 199.73,54.26 200.12,54.26 200.52,54.26 200.91,54.26 201.3,54.27 201.69,54.27 202.08,54.27 202.47,54.27 202.86,54.27 203.25,54.27 203.65,54.27 204.04,54.27 204.43,54.27 204.82,54.28 205.21,54.28 205.6,54.28 205.99,54.27 206.38,54.25 206.77,54.24 207.17,54.23 207.56,54.22 207.95,54.21 208.34,54.21 208.73,54.21 209.12,54.21 209.51,54.21 209.9,54.21 210.29,54.21 210.69,54.22 211.08,54.22 211.47,54.23 211.86,54.23 212.25,54.23 212.64,54.23 213.03,54.23 213.42,54.23 213.82,54.23 214.21,54.23 214.6,54.23 214.99,54.23 215.38,54.22 215.77,54.21 216.16,54.2 216.55,54.21 216.94,54.21 217.34,54.21 217.73,54.2 218.12,54.2 218.51,54.2 218.9,54.19 219.29,54.19 219.68,54.19 220.07,54.19 220.46,54.2 220.86,54.21 221.25,54.21 221.64,54.2 222.03,54.19 222.42,54.18 222.81,54.17 223.2,54.16 223.59,54.17 223.99,54.17 224.38,54.18 224.77,54.2 225.16,54.21 225.55,54.21 225.94,54.2 226.33,54.2 226.72,54.2 227.11,54.2 227.51,54.2 227.9,54.19 228.29,54.19 228.68,54.18 229.07,54.17 229.46,54.17 229.85,54.17 230.24,54.17 230.63,54.18 231.03,54.18 231.42,54.19 231.81,54.2 232.2,54.2 232.59,54.2 232.98,54.18 233.37,54.16 233.76,54.15 234.16,54.14 234.55,54.14 234.94,54.15 235.33,54.16 235.72,54.16 236.11,54.16 236.5,54.15 236.89,54.15 237.28,54.14 237.68,54.14 238.07,54.14 238.46,54.14 238.85,54.15 239.24,54.16 239.63,54.17 240.02,54.18 240.41,54.17 240.8,54.15 241.2,54.14 241.59,54.13 241.98,54.13 242.37,54.14 242.76,54.15 243.15,54.16 243.54,54.16 243.93,54.17 244.33,54.17 244.72,54.18 245.11,54.18 245.5,54.17 245.89,54.17 246.28,54.16 246.67,54.16 247.06,54.15 247.45,54.15 247.85,54.15 248.24,54.16 248.63,54.16 249.02,54.17 249.41,54.17 249.8,54.16 250.19,54.16 250.58,54.16 250.97,54.15 251.37,54.15 251.76,54.15 252.15,54.14 252.54,54.14 252.93,54.15 253.32,54.15 253.71,54.16 254.1,54.16 254.5,54.15 254.89,54.14 255.28,54.14 255.67,54.13 256.06,54.13 256.45,54.14 256.84,54.15 257.23,54.15 257.62,54.14 258.02,54.1 258.41,54.06 258.8,54.02 259.19,53.99 259.58,53.97 259.97,53.97 260.36,53.97" stroke-dasharray="none" stroke="rgb(31,120,180)" stroke-width="0.75" opacity="1" stroke-opacity="1" fill="none"/>
          </g>
          <g id="Fig:densplot_01.xyplot.lines.group.9.panel.1.1.1">
            <polyline id="Fig:densplot_01.xyplot.lines.group.9.panel.1.1.1.1" points="60.1,54 60.5,54.13 60.89,54.61 61.28,56.19 61.67,60.35 62.07,69.12 62.46,84.06 62.85,104.54 63.25,127.02 63.64,146.25 64.03,158.05 64.42,161.2 64.82,157.33 65.21,149.31 65.6,139.74 66,130.3 66.39,121.77 66.78,114.4 67.17,108.14 67.57,102.83 67.96,98.28 68.35,94.34 68.74,90.9 69.14,87.9 69.53,85.25 69.92,82.9 70.32,80.79 70.71,78.92 71.1,77.27 71.49,75.83 71.89,74.55 72.28,73.39 72.67,72.32 73.07,71.34 73.46,70.48 73.85,69.72 74.24,69.04 74.64,68.4 75.03,67.79 75.42,67.21 75.82,66.65 76.21,66.13 76.6,65.64 76.99,65.18 77.39,64.73 77.78,64.31 78.17,63.91 78.56,63.54 78.96,63.19 79.35,62.88 79.74,62.61 80.14,62.35 80.53,62.1 80.92,61.87 81.31,61.66 81.71,61.47 82.1,61.3 82.49,61.13 82.89,60.97 83.28,60.82 83.67,60.67 84.06,60.53 84.46,60.37 84.85,60.2 85.24,60.02 85.64,59.86 86.03,59.7 86.42,59.56 86.81,59.42 87.21,59.28 87.6,59.16 87.99,59.05 88.38,58.92 88.78,58.79 89.17,58.64 89.56,58.49 89.96,58.36 90.35,58.25 90.74,58.17 91.13,58.11 91.53,58.08 91.92,58.04 92.31,57.99 92.71,57.94 93.1,57.87 93.49,57.78 93.88,57.67 94.28,57.55 94.67,57.44 95.06,57.35 95.46,57.3 95.85,57.28 96.24,57.27 96.63,57.25 97.03,57.23 97.42,57.2 97.81,57.16 98.2,57.13 98.6,57.1 98.99,57.07 99.38,57.03 99.78,56.97 100.17,56.9 100.56,56.82 100.95,56.75 101.35,56.69 101.74,56.65 102.13,56.64 102.53,56.64 102.92,56.64 103.31,56.62 103.7,56.58 104.1,56.52 104.49,56.46 104.88,56.41 105.27,56.38 105.67,56.35 106.06,56.34 106.45,56.34 106.85,56.34 107.24,56.33 107.63,56.31 108.02,56.28 108.42,56.23 108.81,56.17 109.2,56.11 109.6,56.06 109.99,56.04 110.38,56.03 110.77,56.03 111.17,56.02 111.56,55.99 111.95,55.96 112.35,55.92 112.74,55.89 113.13,55.88 113.52,55.87 113.92,55.85 114.31,55.81 114.7,55.77 115.09,55.72 115.49,55.68 115.88,55.66 116.27,55.66 116.67,55.66 117.06,55.65 117.45,55.64 117.84,55.62 118.24,55.6 118.63,55.59 119.02,55.58 119.42,55.58 119.81,55.58 120.2,55.57 120.59,55.55 120.99,55.53 121.38,55.51 121.77,55.48 122.17,55.47 122.56,55.45 122.95,55.44 123.34,55.44 123.74,55.43 124.13,55.43 124.52,55.41 124.91,55.39 125.31,55.36 125.7,55.33 126.09,55.31 126.49,55.3 126.88,55.28 127.27,55.26 127.66,55.23 128.06,55.22 128.45,55.21 128.84,55.2 129.24,55.2 129.63,55.2 130.02,55.2 130.41,55.2 130.81,55.21 131.2,55.21 131.59,55.21 131.99,55.2 132.38,55.18 132.77,55.15 133.16,55.12 133.56,55.09 133.95,55.06 134.34,55.04 134.73,55.02 135.13,55 135.52,54.99 135.91,55 136.31,55.02 136.7,55.05 137.09,55.07 137.48,55.07 137.88,55.05 138.27,55.02 138.66,54.99 139.06,54.98 139.45,54.97 139.84,54.97 140.23,54.98 140.63,54.98 141.02,54.97 141.41,54.96 141.81,54.95 142.2,54.95 142.59,54.94 142.98,54.93 143.38,54.92 143.77,54.91 144.16,54.9 144.55,54.9 144.95,54.9 145.34,54.89 145.73,54.88 146.13,54.87 146.52,54.87 146.91,54.86 147.3,54.86 147.7,54.85 148.09,54.84 148.48,54.82 148.88,54.79 149.27,54.77 149.66,54.76 150.05,54.74 150.45,54.73 150.84,54.73 151.23,54.73 151.63,54.73 152.02,54.72 152.41,54.71 152.8,54.71 153.2,54.7 153.59,54.7 153.98,54.7 154.37,54.7 154.77,54.7 155.16,54.7 155.55,54.7 155.95,54.7 156.34,54.7 156.73,54.69 157.12,54.69 157.52,54.68 157.91,54.67 158.3,54.67 158.7,54.67 159.09,54.67 159.48,54.68 159.87,54.68 160.27,54.67 160.66,54.66 161.05,54.64 161.45,54.62 161.84,54.6 162.23,54.58 162.62,54.57 163.02,54.55 163.41,54.55 163.8,54.56 164.19,54.58 164.59,54.59 164.98,54.6 165.37,54.61 165.77,54.61 166.16,54.61 166.55,54.6 166.94,54.58 167.34,54.56 167.73,54.55 168.12,54.54 168.52,54.54 168.91,54.53 169.3,54.53 169.69,54.52 170.09,54.52 170.48,54.51 170.87,54.51 171.27,54.5 171.66,54.5 172.05,54.5 172.44,54.51 172.84,54.52 173.23,54.53 173.62,54.53 174.01,54.53 174.41,54.51 174.8,54.49 175.19,54.47 175.59,54.45 175.98,54.45 176.37,54.45 176.76,54.46 177.16,54.46 177.55,54.46 177.94,54.46 178.34,54.46 178.73,54.46 179.12,54.46 179.51,54.45 179.91,54.45 180.3,54.45 180.69,54.45 181.09,54.45 181.48,54.45 181.87,54.45 182.26,54.45 182.66,54.44 183.05,54.44 183.44,54.43 183.83,54.42 184.23,54.41 184.62,54.42 185.01,54.42 185.41,54.43 185.8,54.44 186.19,54.43 186.58,54.43 186.98,54.42 187.37,54.41 187.76,54.41 188.16,54.4 188.55,54.4 188.94,54.39 189.33,54.39 189.73,54.39 190.12,54.4 190.51,54.4 190.91,54.39 191.3,54.38 191.69,54.37 192.08,54.37 192.48,54.37 192.87,54.38 193.26,54.38 193.65,54.38 194.05,54.37 194.44,54.36 194.83,54.35 195.23,54.34 195.62,54.34 196.01,54.35 196.4,54.35 196.8,54.34 197.19,54.33 197.58,54.32 197.98,54.32 198.37,54.31 198.76,54.31 199.15,54.31 199.55,54.31 199.94,54.3 200.33,54.3 200.73,54.31 201.12,54.31 201.51,54.32 201.9,54.33 202.3,54.33 202.69,54.33 203.08,54.33 203.47,54.32 203.87,54.31 204.26,54.31 204.65,54.31 205.05,54.32 205.44,54.33 205.83,54.33 206.22,54.33 206.62,54.32 207.01,54.32 207.4,54.31 207.8,54.31 208.19,54.3 208.58,54.29 208.97,54.28 209.37,54.28 209.76,54.28 210.15,54.27 210.55,54.27 210.94,54.27 211.33,54.28 211.72,54.28 212.12,54.29 212.51,54.3 212.9,54.3 213.29,54.29 213.69,54.27 214.08,54.26 214.47,54.26 214.87,54.25 215.26,54.25 215.65,54.26 216.04,54.26 216.44,54.26 216.83,54.27 217.22,54.26 217.62,54.26 218.01,54.26 218.4,54.26 218.79,54.26 219.19,54.25 219.58,54.24 219.97,54.23 220.36,54.22 220.76,54.22 221.15,54.21 221.54,54.21 221.94,54.22 222.33,54.22 222.72,54.23 223.11,54.25 223.51,54.25 223.9,54.26 224.29,54.25 224.69,54.24 225.08,54.24 225.47,54.23 225.86,54.22 226.26,54.22 226.65,54.21 227.04,54.21 227.44,54.21 227.83,54.2 228.22,54.2 228.61,54.2 229.01,54.21 229.4,54.22 229.79,54.22 230.18,54.22 230.58,54.22 230.97,54.22 231.36,54.22 231.76,54.22 232.15,54.22 232.54,54.23 232.93,54.23 233.33,54.22 233.72,54.21 234.11,54.2 234.51,54.2 234.9,54.19 235.29,54.19 235.68,54.19 236.08,54.19 236.47,54.19 236.86,54.19 237.26,54.19 237.65,54.19 238.04,54.2 238.43,54.2 238.83,54.21 239.22,54.21 239.61,54.22 240,54.22 240.4,54.22 240.79,54.21 241.18,54.21 241.58,54.2 241.97,54.19 242.36,54.19 242.75,54.18 243.15,54.18 243.54,54.18 243.93,54.18 244.33,54.18 244.72,54.18 245.11,54.17 245.5,54.17 245.9,54.16 246.29,54.15 246.68,54.15 247.08,54.15 247.47,54.15 247.86,54.16 248.25,54.16 248.65,54.16 249.04,54.15 249.43,54.15 249.82,54.15 250.22,54.15 250.61,54.16 251,54.17 251.4,54.17 251.79,54.17 252.18,54.17 252.57,54.16 252.97,54.15 253.36,54.14 253.75,54.14 254.15,54.15 254.54,54.16 254.93,54.17 255.32,54.17 255.72,54.18 256.11,54.18 256.5,54.17 256.9,54.16 257.29,54.15 257.68,54.13 258.07,54.09 258.47,54.06 258.86,54.02 259.25,54 259.64,53.98 260.04,53.97 260.43,53.97 260.82,53.97" stroke-dasharray="none" stroke="rgb(31,120,180)" stroke-width="0.75" opacity="1" stroke-opacity="1" fill="none"/>
          </g>
          <g id="Fig:densplot_01.xyplot.lines.group.10.panel.1.1.1">
            <polyline id="Fig:densplot_01.xyplot.lines.group.10.panel.1.1.1.1" points="61.11,54.01 61.5,54.55 61.89,58.21 62.28,73.13 62.67,109.48 63.06,162.47 63.45,206.9 63.84,222.22 64.23,211.09 64.61,188.62 65,166.38 65.39,148.38 65.78,134.35 66.17,123.27 66.56,114.44 66.95,107.3 67.34,101.38 67.72,96.39 68.11,92.17 68.5,88.64 68.89,85.63 69.28,83.01 69.67,80.76 70.06,78.89 70.45,77.28 70.84,75.8 71.22,74.43 71.61,73.16 72,71.99 72.39,70.9 72.78,69.91 73.17,69 73.56,68.14 73.95,67.37 74.34,66.72 74.72,66.13 75.11,65.52 75.5,64.96 75.89,64.45 76.28,63.93 76.67,63.46 77.06,63.11 77.45,62.84 77.83,62.59 78.22,62.3 78.61,61.98 79,61.68 79.39,61.44 79.78,61.22 80.17,60.98 80.56,60.7 80.95,60.39 81.33,60.12 81.72,59.91 82.11,59.78 82.5,59.66 82.89,59.52 83.28,59.29 83.67,59.03 84.06,58.83 84.44,58.7 84.83,58.61 85.22,58.57 85.61,58.54 86,58.44 86.39,58.27 86.78,58.09 87.17,57.95 87.56,57.85 87.94,57.78 88.33,57.71 88.72,57.63 89.11,57.54 89.5,57.48 89.89,57.47 90.28,57.48 90.67,57.45 91.06,57.34 91.44,57.19 91.83,57.08 92.22,57.01 92.61,56.94 93,56.87 93.39,56.84 93.78,56.83 94.17,56.8 94.55,56.76 94.94,56.7 95.33,56.63 95.72,56.55 96.11,56.48 96.5,56.41 96.89,56.34 97.28,56.28 97.67,56.23 98.05,56.23 98.44,56.23 98.83,56.18 99.22,56.09 99.61,56.01 100,55.99 100.39,56.02 100.78,56.05 101.17,56.01 101.55,55.93 101.94,55.84 102.33,55.78 102.72,55.75 103.11,55.74 103.5,55.7 103.89,55.65 104.28,55.63 104.66,55.64 105.05,55.63 105.44,55.58 105.83,55.55 106.22,55.54 106.61,55.56 107,55.6 107.39,55.61 107.78,55.58 108.16,55.52 108.55,55.46 108.94,55.42 109.33,55.36 109.72,55.31 110.11,55.28 110.5,55.27 110.89,55.26 111.27,55.25 111.66,55.24 112.05,55.23 112.44,55.22 112.83,55.21 113.22,55.21 113.61,55.18 114,55.14 114.39,55.09 114.77,55.06 115.16,55.08 115.55,55.1 115.94,55.1 116.33,55.09 116.72,55.11 117.11,55.14 117.5,55.15 117.89,55.11 118.27,55.05 118.66,55.01 119.05,55 119.44,55 119.83,54.99 120.22,54.97 120.61,54.92 121,54.89 121.38,54.88 121.77,54.87 122.16,54.86 122.55,54.86 122.94,54.88 123.33,54.89 123.72,54.88 124.11,54.86 124.5,54.84 124.88,54.86 125.27,54.88 125.66,54.87 126.05,54.84 126.44,54.82 126.83,54.8 127.22,54.77 127.61,54.75 128,54.72 128.38,54.7 128.77,54.7 129.16,54.71 129.55,54.71 129.94,54.69 130.33,54.68 130.72,54.65 131.11,54.63 131.49,54.63 131.88,54.63 132.27,54.65 132.66,54.67 133.05,54.68 133.44,54.68 133.83,54.66 134.22,54.63 134.61,54.61 134.99,54.62 135.38,54.65 135.77,54.65 136.16,54.61 136.55,54.57 136.94,54.53 137.33,54.52 137.72,54.53 138.1,54.53 138.49,54.53 138.88,54.53 139.27,54.52 139.66,54.51 140.05,54.51 140.44,54.52 140.83,54.54 141.22,54.54 141.6,54.53 141.99,54.51 142.38,54.49 142.77,54.47 143.16,54.46 143.55,54.47 143.94,54.47 144.33,54.47 144.72,54.46 145.1,54.46 145.49,54.45 145.88,54.43 146.27,54.43 146.66,54.43 147.05,54.44 147.44,54.43 147.83,54.43 148.21,54.43 148.6,54.44 148.99,54.44 149.38,54.44 149.77,54.45 150.16,54.45 150.55,54.45 150.94,54.45 151.33,54.44 151.71,54.43 152.1,54.42 152.49,54.42 152.88,54.42 153.27,54.43 153.66,54.43 154.05,54.4 154.44,54.38 154.83,54.37 155.21,54.37 155.6,54.37 155.99,54.37 156.38,54.38 156.77,54.39 157.16,54.39 157.55,54.39 157.94,54.38 158.32,54.36 158.71,54.33 159.1,54.3 159.49,54.28 159.88,54.28 160.27,54.29 160.66,54.31 161.05,54.31 161.44,54.31 161.82,54.3 162.21,54.29 162.6,54.29 162.99,54.3 163.38,54.31 163.77,54.31 164.16,54.3 164.55,54.3 164.93,54.3 165.32,54.31 165.71,54.32 166.1,54.3 166.49,54.28 166.88,54.27 167.27,54.27 167.66,54.28 168.05,54.29 168.43,54.3 168.82,54.3 169.21,54.29 169.6,54.29 169.99,54.29 170.38,54.29 170.77,54.29 171.16,54.27 171.55,54.25 171.93,54.25 172.32,54.26 172.71,54.26 173.1,54.25 173.49,54.23 173.88,54.23 174.27,54.23 174.66,54.23 175.04,54.22 175.43,54.23 175.82,54.24 176.21,54.24 176.6,54.23 176.99,54.22 177.38,54.23 177.77,54.24 178.16,54.24 178.54,54.23 178.93,54.2 179.32,54.19 179.71,54.19 180.1,54.2 180.49,54.21 180.88,54.22 181.27,54.24 181.65,54.24 182.04,54.24 182.43,54.24 182.82,54.24 183.21,54.24 183.6,54.22 183.99,54.2 184.38,54.19 184.77,54.19 185.15,54.19 185.54,54.18 185.93,54.17 186.32,54.17 186.71,54.18 187.1,54.18 187.49,54.18 187.88,54.18 188.27,54.19 188.65,54.19 189.04,54.18 189.43,54.18 189.82,54.17 190.21,54.17 190.6,54.16 190.99,54.16 191.38,54.17 191.76,54.18 192.15,54.19 192.54,54.19 192.93,54.19 193.32,54.19 193.71,54.17 194.1,54.16 194.49,54.16 194.88,54.16 195.26,54.17 195.65,54.18 196.04,54.18 196.43,54.18 196.82,54.18 197.21,54.17 197.6,54.16 197.99,54.16 198.38,54.16 198.76,54.15 199.15,54.14 199.54,54.13 199.93,54.11 200.32,54.11 200.71,54.13 201.1,54.15 201.49,54.17 201.87,54.17 202.26,54.16 202.65,54.14 203.04,54.13 203.43,54.14 203.82,54.15 204.21,54.15 204.6,54.14 204.99,54.14 205.37,54.14 205.76,54.14 206.15,54.12 206.54,54.11 206.93,54.11 207.32,54.11 207.71,54.12 208.1,54.13 208.48,54.12 208.87,54.12 209.26,54.11 209.65,54.11 210.04,54.11 210.43,54.11 210.82,54.12 211.21,54.13 211.6,54.14 211.98,54.14 212.37,54.14 212.76,54.14 213.15,54.13 213.54,54.12 213.93,54.11 214.32,54.1 214.71,54.1 215.1,54.1 215.48,54.1 215.87,54.11 216.26,54.12 216.65,54.12 217.04,54.11 217.43,54.1 217.82,54.1 218.21,54.1 218.59,54.11 218.98,54.13 219.37,54.14 219.76,54.14 220.15,54.12 220.54,54.1 220.93,54.09 221.32,54.09 221.71,54.09 222.09,54.11 222.48,54.12 222.87,54.12 223.26,54.11 223.65,54.12 224.04,54.13 224.43,54.13 224.82,54.13 225.21,54.11 225.59,54.1 225.98,54.1 226.37,54.11 226.76,54.12 227.15,54.11 227.54,54.11 227.93,54.1 228.32,54.1 228.7,54.09 229.09,54.09 229.48,54.09 229.87,54.1 230.26,54.1 230.65,54.1 231.04,54.1 231.43,54.1 231.82,54.1 232.2,54.11 232.59,54.11 232.98,54.11 233.37,54.1 233.76,54.1 234.15,54.1 234.54,54.09 234.93,54.08 235.31,54.08 235.7,54.08 236.09,54.08 236.48,54.1 236.87,54.11 237.26,54.11 237.65,54.1 238.04,54.09 238.43,54.1 238.81,54.1 239.2,54.1 239.59,54.1 239.98,54.09 240.37,54.07 240.76,54.07 241.15,54.07 241.54,54.07 241.93,54.07 242.31,54.09 242.7,54.1 243.09,54.1 243.48,54.09 243.87,54.09 244.26,54.08 244.65,54.08 245.04,54.08 245.42,54.08 245.81,54.07 246.2,54.07 246.59,54.08 246.98,54.09 247.37,54.09 247.76,54.08 248.15,54.07 248.54,54.07 248.92,54.06 249.31,54.05 249.7,54.05 250.09,54.06 250.48,54.06 250.87,54.06 251.26,54.07 251.65,54.08 252.03,54.08 252.42,54.08 252.81,54.07 253.2,54.07 253.59,54.06 253.98,54.06 254.37,54.07 254.76,54.07 255.15,54.06 255.53,54.06 255.92,54.05 256.31,54.04 256.7,54.04 257.09,54.03 257.48,54.03 257.87,54.03 258.26,54.02 258.65,54 259.03,53.98 259.42,53.97 259.81,53.97" stroke-dasharray="none" stroke="rgb(31,120,180)" stroke-width="0.75" opacity="1" stroke-opacity="1" fill="none"/>
          </g>
          <g id="Fig:densplot_01.xyplot.lines.group.11.panel.1.1.1">
            <polyline id="Fig:densplot_01.xyplot.lines.group.11.panel.1.1.1.1" points="60.57,54.01 60.96,54.28 61.36,55.58 61.75,60.37 62.14,73.35 62.53,99.15 62.92,135.93 63.31,172 63.7,193.25 64.09,194.45 64.48,182.26 64.87,165.37 65.26,149.2 65.65,135.58 66.04,124.56 66.43,115.71 66.83,108.58 67.22,102.73 67.61,97.79 68,93.59 68.39,90.02 68.78,86.95 69.17,84.25 69.56,81.82 69.95,79.66 70.34,77.79 70.73,76.19 71.12,74.8 71.51,73.57 71.9,72.47 72.3,71.46 72.69,70.5 73.08,69.62 73.47,68.82 73.86,68.12 74.25,67.47 74.64,66.85 75.03,66.24 75.42,65.66 75.81,65.12 76.2,64.62 76.59,64.16 76.98,63.77 77.37,63.45 77.77,63.14 78.16,62.84 78.55,62.58 78.94,62.35 79.33,62.12 79.72,61.87 80.11,61.59 80.5,61.32 80.89,61.06 81.28,60.8 81.67,60.54 82.06,60.3 82.45,60.12 82.84,59.99 83.24,59.9 83.63,59.78 84.02,59.62 84.41,59.44 84.8,59.28 85.19,59.16 85.58,59.07 85.97,58.97 86.36,58.86 86.75,58.73 87.14,58.6 87.53,58.47 87.92,58.35 88.31,58.23 88.71,58.13 89.1,58.05 89.49,57.98 89.88,57.9 90.27,57.8 90.66,57.72 91.05,57.68 91.44,57.68 91.83,57.68 92.22,57.65 92.61,57.58 93,57.5 93.39,57.4 93.78,57.31 94.18,57.22 94.57,57.12 94.96,57.02 95.35,56.95 95.74,56.92 96.13,56.92 96.52,56.91 96.91,56.87 97.3,56.81 97.69,56.73 98.08,56.63 98.47,56.54 98.86,56.48 99.25,56.43 99.65,56.4 100.04,56.37 100.43,56.34 100.82,56.31 101.21,56.29 101.6,56.28 101.99,56.27 102.38,56.25 102.77,56.23 103.16,56.21 103.55,56.19 103.94,56.18 104.33,56.17 104.72,56.13 105.12,56.07 105.51,56 105.9,55.94 106.29,55.9 106.68,55.88 107.07,55.87 107.46,55.84 107.85,55.79 108.24,55.74 108.63,55.71 109.02,55.7 109.41,55.71 109.8,55.71 110.19,55.68 110.59,55.64 110.98,55.6 111.37,55.54 111.76,55.5 112.15,55.49 112.54,55.5 112.93,55.52 113.32,55.52 113.71,55.5 114.1,55.46 114.49,55.42 114.88,55.4 115.27,55.38 115.66,55.38 116.06,55.38 116.45,55.38 116.84,55.37 117.23,55.35 117.62,55.33 118.01,55.29 118.4,55.26 118.79,55.23 119.18,55.21 119.57,55.2 119.96,55.21 120.35,55.2 120.74,55.19 121.13,55.16 121.53,55.14 121.92,55.13 122.31,55.12 122.7,55.12 123.09,55.12 123.48,55.11 123.87,55.1 124.26,55.07 124.65,55.04 125.04,55 125.43,54.97 125.82,54.96 126.21,54.95 126.61,54.96 127,54.98 127.39,54.99 127.78,55.01 128.17,55.01 128.56,55 128.95,54.97 129.34,54.93 129.73,54.9 130.12,54.86 130.51,54.82 130.9,54.81 131.29,54.81 131.68,54.83 132.08,54.84 132.47,54.84 132.86,54.84 133.25,54.83 133.64,54.83 134.03,54.84 134.42,54.85 134.81,54.86 135.2,54.86 135.59,54.87 135.98,54.89 136.37,54.91 136.76,54.91 137.15,54.89 137.55,54.85 137.94,54.81 138.33,54.78 138.72,54.77 139.11,54.77 139.5,54.78 139.89,54.8 140.28,54.8 140.67,54.79 141.06,54.77 141.45,54.75 141.84,54.75 142.23,54.74 142.62,54.72 143.02,54.7 143.41,54.67 143.8,54.65 144.19,54.63 144.58,54.62 144.97,54.63 145.36,54.65 145.75,54.67 146.14,54.67 146.53,54.66 146.92,54.64 147.31,54.62 147.7,54.61 148.09,54.6 148.49,54.58 148.88,54.56 149.27,54.54 149.66,54.54 150.05,54.55 150.44,54.57 150.83,54.59 151.22,54.6 151.61,54.59 152,54.58 152.39,54.57 152.78,54.55 153.17,54.53 153.56,54.5 153.96,54.49 154.35,54.48 154.74,54.49 155.13,54.49 155.52,54.49 155.91,54.49 156.3,54.49 156.69,54.49 157.08,54.49 157.47,54.49 157.86,54.49 158.25,54.49 158.64,54.49 159.03,54.49 159.43,54.48 159.82,54.48 160.21,54.47 160.6,54.45 160.99,54.44 161.38,54.43 161.77,54.43 162.16,54.43 162.55,54.41 162.94,54.4 163.33,54.41 163.72,54.42 164.11,54.44 164.5,54.45 164.9,54.46 165.29,54.45 165.68,54.45 166.07,54.45 166.46,54.44 166.85,54.43 167.24,54.41 167.63,54.39 168.02,54.37 168.41,54.37 168.8,54.37 169.19,54.38 169.58,54.39 169.97,54.4 170.37,54.39 170.76,54.38 171.15,54.38 171.54,54.38 171.93,54.38 172.32,54.38 172.71,54.38 173.1,54.38 173.49,54.39 173.88,54.39 174.27,54.37 174.66,54.35 175.05,54.34 175.44,54.32 175.84,54.32 176.23,54.32 176.62,54.32 177.01,54.32 177.4,54.31 177.79,54.3 178.18,54.32 178.57,54.34 178.96,54.36 179.35,54.38 179.74,54.38 180.13,54.37 180.52,54.36 180.91,54.36 181.31,54.35 181.7,54.34 182.09,54.34 182.48,54.33 182.87,54.32 183.26,54.32 183.65,54.32 184.04,54.32 184.43,54.32 184.82,54.3 185.21,54.28 185.6,54.27 185.99,54.26 186.38,54.26 186.78,54.26 187.17,54.26 187.56,54.26 187.95,54.25 188.34,54.24 188.73,54.24 189.12,54.24 189.51,54.26 189.9,54.27 190.29,54.27 190.68,54.27 191.07,54.26 191.46,54.25 191.85,54.25 192.25,54.24 192.64,54.25 193.03,54.26 193.42,54.27 193.81,54.27 194.2,54.27 194.59,54.26 194.98,54.25 195.37,54.24 195.76,54.24 196.15,54.24 196.54,54.25 196.93,54.25 197.32,54.24 197.72,54.23 198.11,54.23 198.5,54.22 198.89,54.21 199.28,54.2 199.67,54.21 200.06,54.21 200.45,54.22 200.84,54.23 201.23,54.23 201.62,54.22 202.01,54.22 202.4,54.21 202.79,54.2 203.19,54.2 203.58,54.2 203.97,54.2 204.36,54.21 204.75,54.22 205.14,54.23 205.53,54.22 205.92,54.21 206.31,54.21 206.7,54.21 207.09,54.22 207.48,54.23 207.87,54.23 208.26,54.24 208.66,54.24 209.05,54.23 209.44,54.23 209.83,54.22 210.22,54.21 210.61,54.2 211,54.2 211.39,54.21 211.78,54.22 212.17,54.23 212.56,54.22 212.95,54.2 213.34,54.18 213.73,54.17 214.13,54.16 214.52,54.16 214.91,54.16 215.3,54.17 215.69,54.19 216.08,54.19 216.47,54.19 216.86,54.19 217.25,54.18 217.64,54.17 218.03,54.16 218.42,54.16 218.81,54.16 219.2,54.16 219.6,54.16 219.99,54.16 220.38,54.17 220.77,54.18 221.16,54.18 221.55,54.17 221.94,54.15 222.33,54.15 222.72,54.16 223.11,54.17 223.5,54.18 223.89,54.17 224.28,54.16 224.67,54.15 225.07,54.15 225.46,54.16 225.85,54.17 226.24,54.17 226.63,54.18 227.02,54.17 227.41,54.16 227.8,54.14 228.19,54.14 228.58,54.14 228.97,54.15 229.36,54.16 229.75,54.16 230.14,54.16 230.54,54.15 230.93,54.15 231.32,54.15 231.71,54.16 232.1,54.16 232.49,54.16 232.88,54.16 233.27,54.16 233.66,54.16 234.05,54.16 234.44,54.16 234.83,54.16 235.22,54.15 235.61,54.14 236.01,54.14 236.4,54.14 236.79,54.14 237.18,54.14 237.57,54.14 237.96,54.15 238.35,54.16 238.74,54.17 239.13,54.16 239.52,54.15 239.91,54.14 240.3,54.13 240.69,54.13 241.08,54.13 241.48,54.13 241.87,54.13 242.26,54.13 242.65,54.12 243.04,54.12 243.43,54.12 243.82,54.13 244.21,54.14 244.6,54.14 244.99,54.15 245.38,54.15 245.77,54.15 246.16,54.14 246.55,54.14 246.95,54.14 247.34,54.14 247.73,54.14 248.12,54.14 248.51,54.12 248.9,54.11 249.29,54.1 249.68,54.11 250.07,54.11 250.46,54.12 250.85,54.13 251.24,54.13 251.63,54.13 252.02,54.12 252.42,54.13 252.81,54.13 253.2,54.13 253.59,54.13 253.98,54.13 254.37,54.12 254.76,54.12 255.15,54.11 255.54,54.11 255.93,54.11 256.32,54.11 256.71,54.11 257.1,54.11 257.49,54.11 257.89,54.09 258.28,54.06 258.67,54.02 259.06,53.99 259.45,53.97 259.84,53.97 260.23,53.97" stroke-dasharray="none" stroke="rgb(31,120,180)" stroke-width="0.75" opacity="1" stroke-opacity="1" fill="none"/>
          </g>
          <g id="Fig:densplot_01.xyplot.lines.group.12.panel.1.1.1">
            <polyline id="Fig:densplot_01.xyplot.lines.group.12.panel.1.1.1.1" points="59.53,54 59.93,54.09 60.32,54.37 60.71,55.15 61.11,56.99 61.5,60.76 61.9,67.42 62.29,77.61 62.69,91.06 63.08,106.21 63.48,120.55 63.87,131.55 64.27,137.64 64.66,138.6 65.06,135.78 65.45,130.74 65.85,124.79 66.24,118.79 66.64,113.18 67.03,108.11 67.43,103.62 67.82,99.68 68.22,96.23 68.61,93.23 69.01,90.59 69.4,88.25 69.8,86.15 70.19,84.24 70.58,82.5 70.98,80.89 71.37,79.4 71.77,78.03 72.16,76.77 72.56,75.63 72.95,74.59 73.35,73.64 73.74,72.78 74.14,71.97 74.53,71.22 74.93,70.5 75.32,69.84 75.72,69.21 76.11,68.63 76.51,68.08 76.9,67.56 77.3,67.06 77.69,66.58 78.09,66.1 78.48,65.62 78.88,65.17 79.27,64.75 79.67,64.38 80.06,64.07 80.45,63.81 80.85,63.56 81.24,63.32 81.64,63.07 82.03,62.82 82.43,62.58 82.82,62.35 83.22,62.13 83.61,61.91 84.01,61.7 84.4,61.51 84.8,61.33 85.19,61.17 85.59,61.03 85.98,60.89 86.38,60.74 86.77,60.58 87.17,60.41 87.56,60.26 87.96,60.11 88.35,59.98 88.75,59.86 89.14,59.74 89.54,59.61 89.93,59.48 90.32,59.35 90.72,59.21 91.11,59.1 91.51,59 91.9,58.92 92.3,58.85 92.69,58.76 93.09,58.67 93.48,58.57 93.88,58.48 94.27,58.39 94.67,58.32 95.06,58.24 95.46,58.18 95.85,58.11 96.25,58.04 96.64,57.98 97.04,57.91 97.43,57.84 97.83,57.77 98.22,57.7 98.62,57.63 99.01,57.57 99.41,57.52 99.8,57.48 100.19,57.44 100.59,57.4 100.98,57.36 101.38,57.32 101.77,57.26 102.17,57.19 102.56,57.11 102.96,57.03 103.35,56.96 103.75,56.91 104.14,56.89 104.54,56.87 104.93,56.85 105.33,56.83 105.72,56.79 106.12,56.73 106.51,56.67 106.91,56.6 107.3,56.52 107.7,56.46 108.09,56.41 108.49,56.38 108.88,56.38 109.28,56.39 109.67,56.39 110.06,56.37 110.46,56.33 110.85,56.28 111.25,56.22 111.64,56.17 112.04,56.14 112.43,56.11 112.83,56.09 113.22,56.08 113.62,56.07 114.01,56.05 114.41,56.03 114.8,56 115.2,55.98 115.59,55.95 115.99,55.92 116.38,55.89 116.78,55.87 117.17,55.85 117.57,55.84 117.96,55.83 118.36,55.82 118.75,55.79 119.15,55.76 119.54,55.72 119.93,55.68 120.33,55.65 120.72,55.62 121.12,55.61 121.51,55.6 121.91,55.6 122.3,55.59 122.7,55.58 123.09,55.57 123.49,55.56 123.88,55.54 124.28,55.53 124.67,55.52 125.07,55.52 125.46,55.51 125.86,55.5 126.25,55.49 126.65,55.47 127.04,55.46 127.44,55.45 127.83,55.45 128.23,55.45 128.62,55.44 129.02,55.42 129.41,55.4 129.8,55.37 130.2,55.35 130.59,55.32 130.99,55.3 131.38,55.29 131.78,55.28 132.17,55.26 132.57,55.25 132.96,55.22 133.36,55.2 133.75,55.17 134.15,55.15 134.54,55.13 134.94,55.13 135.33,55.14 135.73,55.14 136.12,55.13 136.52,55.12 136.91,55.11 137.31,55.1 137.7,55.09 138.1,55.09 138.49,55.09 138.89,55.09 139.28,55.09 139.67,55.08 140.07,55.08 140.46,55.08 140.86,55.07 141.25,55.06 141.65,55.04 142.04,55.02 142.44,55 142.83,54.99 143.23,54.97 143.62,54.95 144.02,54.94 144.41,54.93 144.81,54.91 145.2,54.9 145.6,54.88 145.99,54.86 146.39,54.84 146.78,54.83 147.18,54.83 147.57,54.83 147.97,54.83 148.36,54.82 148.76,54.82 149.15,54.81 149.54,54.8 149.94,54.79 150.33,54.78 150.73,54.78 151.12,54.78 151.52,54.78 151.91,54.78 152.31,54.77 152.7,54.77 153.1,54.77 153.49,54.77 153.89,54.77 154.28,54.77 154.68,54.76 155.07,54.76 155.47,54.75 155.86,54.74 156.26,54.74 156.65,54.72 157.05,54.71 157.44,54.69 157.84,54.67 158.23,54.66 158.63,54.65 159.02,54.65 159.41,54.66 159.81,54.66 160.2,54.66 160.6,54.66 160.99,54.66 161.39,54.66 161.78,54.66 162.18,54.66 162.57,54.66 162.97,54.65 163.36,54.64 163.76,54.62 164.15,54.61 164.55,54.6 164.94,54.6 165.34,54.6 165.73,54.59 166.13,54.59 166.52,54.58 166.92,54.56 167.31,54.55 167.71,54.53 168.1,54.52 168.5,54.52 168.89,54.53 169.28,54.53 169.68,54.54 170.07,54.54 170.47,54.54 170.86,54.54 171.26,54.54 171.65,54.55 172.05,54.55 172.44,54.56 172.84,54.56 173.23,54.56 173.63,54.55 174.02,54.54 174.42,54.52 174.81,54.5 175.21,54.49 175.6,54.48 176,54.48 176.39,54.47 176.79,54.48 177.18,54.48 177.58,54.48 177.97,54.49 178.37,54.49 178.76,54.49 179.15,54.49 179.55,54.49 179.94,54.48 180.34,54.48 180.73,54.47 181.13,54.46 181.52,54.46 181.92,54.46 182.31,54.46 182.71,54.46 183.1,54.46 183.5,54.46 183.89,54.45 184.29,54.44 184.68,54.42 185.08,54.41 185.47,54.4 185.87,54.39 186.26,54.39 186.66,54.39 187.05,54.39 187.45,54.38 187.84,54.38 188.24,54.37 188.63,54.37 189.03,54.36 189.42,54.36 189.81,54.36 190.21,54.36 190.6,54.36 191,54.35 191.39,54.35 191.79,54.35 192.18,54.35 192.58,54.35 192.97,54.35 193.37,54.35 193.76,54.35 194.16,54.35 194.55,54.34 194.95,54.34 195.34,54.34 195.74,54.34 196.13,54.34 196.53,54.34 196.92,54.34 197.32,54.34 197.71,54.33 198.11,54.33 198.5,54.32 198.9,54.32 199.29,54.32 199.68,54.32 200.08,54.33 200.47,54.33 200.87,54.34 201.26,54.34 201.66,54.34 202.05,54.33 202.45,54.33 202.84,54.32 203.24,54.31 203.63,54.31 204.03,54.31 204.42,54.32 204.82,54.32 205.21,54.33 205.61,54.33 206,54.34 206.4,54.34 206.79,54.34 207.19,54.34 207.58,54.33 207.98,54.33 208.37,54.33 208.77,54.32 209.16,54.32 209.55,54.31 209.95,54.31 210.34,54.31 210.74,54.3 211.13,54.29 211.53,54.29 211.92,54.28 212.32,54.28 212.71,54.27 213.11,54.26 213.5,54.26 213.9,54.25 214.29,54.24 214.69,54.23 215.08,54.23 215.48,54.23 215.87,54.23 216.27,54.23 216.66,54.23 217.06,54.23 217.45,54.24 217.85,54.24 218.24,54.25 218.64,54.26 219.03,54.26 219.42,54.26 219.82,54.26 220.21,54.26 220.61,54.26 221,54.25 221.4,54.24 221.79,54.24 222.19,54.23 222.58,54.23 222.98,54.23 223.37,54.24 223.77,54.24 224.16,54.23 224.56,54.23 224.95,54.22 225.35,54.22 225.74,54.21 226.14,54.2 226.53,54.2 226.93,54.19 227.32,54.19 227.72,54.19 228.11,54.2 228.51,54.2 228.9,54.2 229.29,54.2 229.69,54.19 230.08,54.19 230.48,54.19 230.87,54.19 231.27,54.19 231.66,54.18 232.06,54.18 232.45,54.18 232.85,54.18 233.24,54.19 233.64,54.19 234.03,54.2 234.43,54.21 234.82,54.21 235.22,54.21 235.61,54.2 236.01,54.19 236.4,54.18 236.8,54.17 237.19,54.16 237.59,54.16 237.98,54.16 238.38,54.16 238.77,54.17 239.16,54.17 239.56,54.18 239.95,54.18 240.35,54.19 240.74,54.19 241.14,54.19 241.53,54.19 241.93,54.19 242.32,54.18 242.72,54.18 243.11,54.17 243.51,54.17 243.9,54.17 244.3,54.17 244.69,54.17 245.09,54.17 245.48,54.17 245.88,54.17 246.27,54.17 246.67,54.16 247.06,54.16 247.46,54.15 247.85,54.15 248.25,54.15 248.64,54.15 249.03,54.15 249.43,54.15 249.82,54.15 250.22,54.15 250.61,54.15 251.01,54.15 251.4,54.15 251.8,54.14 252.19,54.14 252.59,54.14 252.98,54.13 253.38,54.13 253.77,54.13 254.17,54.13 254.56,54.14 254.96,54.14 255.35,54.15 255.75,54.15 256.14,54.15 256.54,54.15 256.93,54.14 257.33,54.13 257.72,54.11 258.12,54.08 258.51,54.05 258.9,54.02 259.3,54 259.69,53.98 260.09,53.97 260.48,53.97 260.88,53.97 261.27,53.97" stroke-dasharray="none" stroke="rgb(31,120,180)" stroke-width="0.75" opacity="1" stroke-opacity="1" fill="none"/>
          </g>
        </g>
        <g id="Fig:densplot_01.panel.1.1.off.vp.2">
          <g id="Fig:densplot_01.border.panel.1.1.1">
            <rect id="Fig:densplot_01.border.panel.1.1.1.1" x="44.8" y="42.19" width="231.2" height="191.81" transform="" stroke="rgb(0,0,0)" stroke-dasharray="none" stroke-width="0.75" opacity="1" fill="none" stroke-opacity="1" fill-opacity="0"/>
          </g>
        </g>
        <g id="Fig:densplot_01..1"/>
      </g>
    </g>
  </g>
</svg>